<svg id="Group_20" data-name="Group 20" xmlns="http://www.w3.org/2000/svg" width="45.284" height="52.169" viewBox="0 0 45.284 52.169">
  <path id="Path_89" data-name="Path 89" d="M363.88,505.612a35.366,35.366,0,0,1,6.334,1.34,13.316,13.316,0,0,1,4.4,2.258c.124.1.216.063.344.021a7.255,7.255,0,0,1,7.04,1.029,6.538,6.538,0,0,1,2.352,3.964,9.856,9.856,0,0,1-.206,5.327,7.73,7.73,0,0,1-3.044,3.973,57.077,57.077,0,0,0-4.574,3.447.4.4,0,0,1-.111.079,1.728,1.728,0,0,0-.966,1.148c-1.209,3.137-2.432,6.268-3.531,9.446a8.36,8.36,0,0,1-2.31,3.6,8.934,8.934,0,0,1-3.989,1.944,24.7,24.7,0,0,1-4.692.577,44.883,44.883,0,0,1-5.231-.017,15.887,15.887,0,0,1-6.522-1.971,15.21,15.21,0,0,1-6.7-7.732,33.085,33.085,0,0,1-2.236-7.432c-.3-1.758-.491-3.528-.624-5.3-.183-2.436-.2-4.879-.279-7.32a5.812,5.812,0,0,1,3.041-5.443,18.069,18.069,0,0,1,5.268-2.086c.337-.085.677-.16,1.018-.234.121-.027.154-.056.113-.2a9.781,9.781,0,0,1,2.908-10.282,14.919,14.919,0,0,1,7.844-3.843,11.235,11.235,0,0,1,3.945-.111,6.093,6.093,0,0,1,4.707,3.156,6.358,6.358,0,0,1,.683,3.656,8.234,8.234,0,0,1-4.8,6.866C364,505.5,363.921,505.5,363.88,505.612Zm6.881,26.868a.524.524,0,0,0-.258.087,13.667,13.667,0,0,1-2.372.868,27.16,27.16,0,0,1-4.93.754c-1.214.1-2.431.157-3.648.222-.187.011-.2.1-.2.245-.017,2.047-.033,4.094-.063,6.141,0,.243.063.312.306.3,1.118-.034,2.232-.1,3.344-.217a13.1,13.1,0,0,0,3.1-.671,4.939,4.939,0,0,0,2.806-2.457,19.862,19.862,0,0,0,1.067-2.737q.427-1.262.856-2.523l.02-.034Zm-20.983,6.39c.025.015.044.068.077.034s.006-.065-.033-.082a.347.347,0,0,0-.019-.08,25.166,25.166,0,0,1-2.189-7.38,61.392,61.392,0,0,1-.69-9.855c0-.2.041-.246.246-.194A41.008,41.008,0,0,0,353,522.353a53.064,53.064,0,0,0,6.516.279,43.76,43.76,0,0,0,7.113-.676,19.962,19.962,0,0,0,5.029-1.5,5.143,5.143,0,0,0,2.24-1.668c.04-.061.092-.043.142-.052a2.543,2.543,0,0,0,1.972-1.818,5.031,5.031,0,0,0,.157-1.745.836.836,0,0,1,.786-.892,1.209,1.209,0,0,1,1.371.676,3.162,3.162,0,0,1,.3,2.34,5.134,5.134,0,0,1-1.715,2.756,16.235,16.235,0,0,1-2.525,1.714.464.464,0,0,0-.262.4c-.066.712-.164,1.421-.251,2.13-.048.4-.1.791-.154,1.273a15,15,0,0,1,1.285-.968q2.191-1.78,4.52-3.377a5.021,5.021,0,0,0,2.171-3.187,7.481,7.481,0,0,0-.22-3.879A3.85,3.85,0,0,0,380.3,512.4a4.489,4.489,0,0,0-5.754.317,7.505,7.505,0,0,1-.631.55,2.2,2.2,0,0,0-.8-1.721,5.658,5.658,0,0,0-1.312-.949,21.807,21.807,0,0,0-6.92-2.076c-.132-.022-.129.047-.138.134-.027.265-.073.528-.085.793s-.242.6-.073.78c.157.164.512.145.781.2a18.4,18.4,0,0,1,2.94.784,6.273,6.273,0,0,1,2.194,1.214,1.294,1.294,0,0,1-.015,2.092,4.538,4.538,0,0,1-.923.647,12.024,12.024,0,0,1-2.727,1.008,35.989,35.989,0,0,1-9.2.962,38.4,38.4,0,0,1-5.868-.472,18.113,18.113,0,0,1-4.6-1.263,4.166,4.166,0,0,1-1.651-1.158,1.161,1.161,0,0,1-.012-1.539,3.518,3.518,0,0,1,1.3-1,17.736,17.736,0,0,1,4.983-1.444c.6-.105,1.194-.184,1.85-.271-.115-.059-.176-.093-.24-.122a15.1,15.1,0,0,0-3.228-.982,1.657,1.657,0,0,0-.707-.045,24.859,24.859,0,0,0-3.334.931,9.234,9.234,0,0,0-3.112,1.716,2.243,2.243,0,0,0-.869,1.628c-.02,1.432-.021,2.865.035,4.3.053,1.357.121,2.713.229,4.066.123,1.535.3,3.064.55,4.583a29.178,29.178,0,0,0,2.391,7.6A11.55,11.55,0,0,0,349.778,538.871ZM372.6,522.327c-.344.2-.637.39-.941.554s-.621.32-.94.459a26.564,26.564,0,0,1-8.593,1.867,41.423,41.423,0,0,1-4.816.07q-2.094-.085-4.172-.329c-1.13-.132-2.256-.294-3.375-.5-.181-.034-.239.006-.217.206.092.849.167,1.7.249,2.548a75.463,75.463,0,0,0,1.12,7.734,32.048,32.048,0,0,0,1.412,5.055.442.442,0,0,0,.292.29,12.748,12.748,0,0,0,1.423.423,12.332,12.332,0,0,0,2.477.325c.675.026.641.156.576-.584a.421.421,0,0,1,0-.054c-.037-1.46-.077-2.918-.11-4.377-.026-1.167-.035-2.332-.077-3.5-.009-.28.047-.353.334-.351a50.71,50.71,0,0,0,8.133-.388,17.712,17.712,0,0,0,5.163-1.535,1.6,1.6,0,0,0,.953-1.208c.388-1.74.675-3.494.925-5.256C372.488,523.305,372.541,522.836,372.6,522.327Zm-16.161-6.132a11.29,11.29,0,0,0,2.239-.959,7.5,7.5,0,0,0,3.273-3.242,3.662,3.662,0,0,0-.533-4.3,7.8,7.8,0,0,0-.927-.863c-.917-.749-1.93-1.376-2.8-2.191a4.538,4.538,0,0,1-1.554-4.174,4.281,4.281,0,0,1,4.253-3.675A1.942,1.942,0,0,1,362.5,499a2.738,2.738,0,0,1-1.157,2.04,5.35,5.35,0,0,1-2.15,1.008c-.187.045-.249.1-.2.316a1.288,1.288,0,0,0,.86.954,2.962,2.962,0,0,0,1.548.092,5.585,5.585,0,0,0,4.669-6.119,2.976,2.976,0,0,0-1.44-2.265,4.723,4.723,0,0,0-2.535-.622,12.622,12.622,0,0,0-7.731,2.636,7.494,7.494,0,0,0-3.236,6.769,4.821,4.821,0,0,0,.884,2.506,7.3,7.3,0,0,0,2.3,1.944,25.987,25.987,0,0,1,2.393,1.457,2.921,2.921,0,0,1,1.256,3.1,13.522,13.522,0,0,1-.577,1.6A6.074,6.074,0,0,1,356.444,516.195Z" transform="translate(-339.335 -491.664)" fill="#2d2d2d"/>
  <path id="Path_90" data-name="Path 90" d="M348.214,531.563c.039.017.058.057.033.082s-.052-.019-.077-.034Z" transform="translate(-337.728 -484.404)" fill="#2d2d2d"/>
  <path id="Path_91" data-name="Path 91" d="M365.923,526.2l.034-.019-.019.034Z" transform="translate(-334.497 -485.383)" fill="#2d2d2d"/>
</svg>
