<svg xmlns="http://www.w3.org/2000/svg" width="97.034" height="109.056" viewBox="0 0 97.034 109.056">
  <g id="Group_1057" data-name="Group 1057" transform="translate(-45 -946.939)">
    <g id="Group_1056" data-name="Group 1056">
      <path id="Path_975" data-name="Path 975" d="M77.967,1007a3.552,3.552,0,0,0,.707.07,7.449,7.449,0,0,0,1.953-.348c.155-.042.31-.084.467-.124a16.894,16.894,0,0,0,3.476-1.2c.218-.109.444-.217.7-.336l.023-.011a13.765,13.765,0,0,0,1.791-.959,4.006,4.006,0,0,0,1.5-4.6,3.957,3.957,0,0,0-2.987-2.531,4.152,4.152,0,0,0-3.446,1.016c-.11.087-.219.175-.34.274-.2.163-.409.332-.619.478a3.093,3.093,0,0,1-1.675.436,5.161,5.161,0,0,0-3.317,1.009A3.969,3.969,0,0,0,77.967,1007m-.681-5.255c.022-.023.045-.046.068-.068a2.922,2.922,0,0,1,2.013-.613l.184-.011a4.9,4.9,0,0,0,2.828-.868c.181-.135.362-.286.527-.425a5.445,5.445,0,0,1,1.113-.784,2.071,2.071,0,0,1,1.656-.029,1.9,1.9,0,0,1,1.093,1.079,2.121,2.121,0,0,1-1.159,2.709l-.011,0c-.441.217-.883.447-1.273.649l-.286.148a11.21,11.21,0,0,1-1.248.546Zm2.366,3.263a2.168,2.168,0,0,1-2.45-.559,2.031,2.031,0,0,1-.416-.868l3.171,1.346Z" fill="#ff0"/>
      <path id="Path_976" data-name="Path 976" d="M81.735,1022.079l-.581,1.006.581,1.007H82.9l.581-1.007-.581-1.006Z" fill="#ff0"/>
      <path id="Path_977" data-name="Path 977" d="M101.39,1009.952l1.372,2.376a.926.926,0,0,0,.792.455h4.921a.929.929,0,0,0,.793-.455l1.372-2.376c.085-.147.217-.337.344-.521a3.866,3.866,0,0,0,.869-1.827,3.906,3.906,0,0,0-.874-1.834c-.125-.18-.255-.367-.339-.513l-1.372-2.376a.881.881,0,0,0-.408-.376.735.735,0,0,0-.117-.04.953.953,0,0,0-.268-.039h-4.921a.926.926,0,0,0-.792.455l-1.372,2.376c-.084.145-.214.332-.344.519a2.358,2.358,0,0,0,0,3.662c.126.181.255.367.34.514m.763-2.348,1.931-3.344h3.862l1.931,3.344-1.931,3.345h-3.862Z" fill="#ff0"/>
      <path id="Path_978" data-name="Path 978" d="M121.018,986.024H113.1l2.714-6,4.736,3.834h0a.932.932,0,0,0,.755.2,1.048,1.048,0,0,0,.629-.371.788.788,0,0,0-.118-1.156l-5.7-4.617a.731.731,0,0,0-.223-.129.877.877,0,0,0-.724-.125.794.794,0,0,0-.5.458l-3.574,7.907H97.651l1.483-4.256a.872.872,0,0,0-.126-.8.982.982,0,0,0-.783-.418H65.7a.982.982,0,0,0-.784.418.872.872,0,0,0-.126.8l1.641,4.709a.909.909,0,0,0,.075.545q-.14,1.206-.28,2.412l-.03.252c-.214,1.845-.437,3.754-.641,5.631a79.232,79.232,0,0,0,.416,17.641l.573,4.951a1.052,1.052,0,0,0-.009.169l-1.594,4.528a.852.852,0,0,0-.118.907,1,1,0,0,0,.877.579H79.111a.948.948,0,0,0,0-1.9H67.035l1.137-3.264H95.229l.353,3.264H85.522a.948.948,0,0,0,0,1.9H95.787l.076.7a.931.931,0,0,0,.916.9h18.472a.846.846,0,0,0,.849-.638.937.937,0,0,0,.066-.257l3.619-33.437h1.233a.858.858,0,0,0,.616-.241l.047-.045a.866.866,0,0,0,.254-.632v-3.5a.929.929,0,0,0-.917-.917m-.917,3.5H91.928v-1.664H120.1Zm-39.224-3.811,3.264-3.264h8.541l-3.264,3.264Zm-13.011,6.037.475-4.14H90.094v2.83a.93.93,0,0,0,.917.918h1.233l2.779,25.68H68.34l-.226-1.951c-.221-1.9-.45-3.86-.663-5.818a78.71,78.71,0,0,1,.415-17.519m1.788-6.037,3.264-3.264H81.46L78.2,985.711Zm-1.791-.89-.828-2.374h3.2Zm24.236.89,3.264-3.263h1.529l-1.137,3.264Zm25.849,5.645-3.516,32.5H97.6l-3.517-32.5Z" fill="#ff0"/>
    </g>
    <path id="Path_979" data-name="Path 979" d="M141.034,1023.5V979.434a9.354,9.354,0,0,0-4.677-8.1L98.194,949.3a9.354,9.354,0,0,0-9.354,0L50.677,971.333a9.355,9.355,0,0,0-4.677,8.1V1023.5a9.354,9.354,0,0,0,4.677,8.1l38.163,22.034a9.354,9.354,0,0,0,9.354,0l38.163-22.034A9.354,9.354,0,0,0,141.034,1023.5Z" fill="none" stroke="#ff0" stroke-miterlimit="10" stroke-width="2"/>
  </g>
</svg>
