<svg xmlns="http://www.w3.org/2000/svg" width="130.608" height="148.528" viewBox="0 0 130.608 148.528">
  <g id="Group_1380" data-name="Group 1380" transform="translate(-1090 -437)">
    <g id="Group_1378" data-name="Group 1378" transform="translate(1090 437)">
      <g id="Group_968" data-name="Group 968" transform="translate(0)">
        <path id="Path_780" data-name="Path 780" d="M194.556,432.58V365.7a7.385,7.385,0,0,0-3.693-6.4l-57.918-33.44a7.387,7.387,0,0,0-7.386,0l-57.918,33.44a7.385,7.385,0,0,0-3.693,6.4V432.58a7.387,7.387,0,0,0,3.693,6.4l57.918,33.439a7.388,7.388,0,0,0,7.386,0l57.918-33.439A7.387,7.387,0,0,0,194.556,432.58Z" transform="translate(-63.949 -324.877)" fill="#ff0"/>
      </g>
    </g>
    <g id="Group_1379" data-name="Group 1379" transform="translate(1124 482)">
      <path id="Path_785" data-name="Path 785" d="M286.612,408.088H285.38l-.616,1.067.616,1.067h1.232l.616-1.067Z" transform="translate(-263.62 -362.132)" fill="#212121"/>
      <g id="Group_969" data-name="Group 969">
        <path id="Path_786" data-name="Path 786" d="M325.932,394.688a7.416,7.416,0,0,0,1.9-6.66,21.753,21.753,0,0,0-1.007-2.947q-1.136-3.153-2.275-6.3c-1.291-3.577-2.51-7.188-3.875-10.737-.9-2.331-3.139-1.9-5.172-1.9H277.886c-2.034,0-4.23-.412-5.11,1.932-1.35,3.594-2.609,7.225-3.912,10.836q-1.131,3.132-2.261,6.264a20.433,20.433,0,0,0-1.021,3.06,7.23,7.23,0,0,0,1.944,6.48v20.755c0,2.544-.311,5.23,1.675,7.215,1.842,1.842,4.174,1.675,6.528,1.675h44.484a5.8,5.8,0,0,0,5.681-5.15,19.415,19.415,0,0,0,.038-2ZM267.818,388c1.014-3.231,2.31-6.4,3.459-9.584q1.079-2.987,2.157-5.974a22.559,22.559,0,0,1,1.375-3.81c.51-.852,2.859-.384,3.767-.384H317.4c.386,0,.891-.112,1.17.173a4.357,4.357,0,0,1,.461,1.279q.456,1.263.912,2.527,1.212,3.358,2.425,6.716l2.315,6.415a23.812,23.812,0,0,1,1.108,3.23,4.941,4.941,0,1,1-9.751,1.124,1.073,1.073,0,0,0-1.054-1.054h-.269a1.074,1.074,0,0,0-1.054,1.054,4.944,4.944,0,0,1-9.888,0,1.072,1.072,0,0,0-1.054-1.054h-.134a1.074,1.074,0,0,0-1.054,1.054,4.944,4.944,0,0,1-9.888,0,1.073,1.073,0,0,0-1.054-1.054h-.068a1.074,1.074,0,0,0-1.054,1.054,4.944,4.944,0,0,1-9.888,0,1.072,1.072,0,0,0-1.054-1.054h-.067a1.074,1.074,0,0,0-1.054,1.054A4.947,4.947,0,1,1,267.818,388Zm14.5,33.823V406.782h7.731v15.043Zm41.5-3.393a3.691,3.691,0,0,1-3.609,3.816H292.16V405.727a.971.971,0,0,0-.282-.713.351.351,0,0,0-.034-.036l-.021-.02a.974.974,0,0,0-.717-.286h-9.841a1.07,1.07,0,0,0-1.055,1.054v16.521h-5.947a12.729,12.729,0,0,1-1.4-.015,3.7,3.7,0,0,1-3.227-3.879c-.07-6.43,0-12.865,0-19.3v-2.9c.019.008.036.019.055.026a7.076,7.076,0,0,0,8.243-2.043,6.92,6.92,0,0,0,.585-.852,6.935,6.935,0,0,0,12.042-.037,6.935,6.935,0,0,0,12.1-.059,6.939,6.939,0,0,0,12.2-.124,6.96,6.96,0,0,0,8.964,3.09v3.318C323.822,405.793,323.906,412.116,323.822,418.432Z" transform="translate(-265.45 -366.109)" fill="#212121"/>
        <path id="Path_787" data-name="Path 787" d="M316.543,397.231H295.055A1.069,1.069,0,0,0,294,398.285v11.776a1.069,1.069,0,0,0,1.054,1.054h21.488a.973.973,0,0,0,.713-.281c.013-.011.024-.023.036-.034l.02-.021a.972.972,0,0,0,.286-.718V398.285A1.07,1.07,0,0,0,316.543,397.231Zm-1.054,11.776H296.109V399.34h19.379Z" transform="translate(-262.745 -363.161)" fill="#212121"/>
      </g>
      <g id="Group_970" data-name="Group 970" transform="translate(38.205 37.548)">
        <path id="Path_788" data-name="Path 788" d="M301.55,404.53l2.921-2.921a.7.7,0,0,0-.994-.994l-2.921,2.921a.7.7,0,0,0,.994.994Z" transform="translate(-300.349 -400.408)" fill="#212121"/>
      </g>
      <g id="Group_971" data-name="Group 971" transform="translate(42.553 40.335)">
        <path id="Path_789" data-name="Path 789" d="M305.521,407.076l2.921-2.921a.7.7,0,0,0-.994-.994l-2.921,2.921a.7.7,0,0,0,.994.994Z" transform="translate(-304.32 -402.954)" fill="#212121"/>
      </g>
      <g id="Group_972" data-name="Group 972" transform="translate(39.26 37.766)">
        <path id="Path_790" data-name="Path 790" d="M302.513,406.893l5.084-5.085a.7.7,0,0,0-.994-.994l-5.084,5.085a.7.7,0,0,0,.994.994Z" transform="translate(-301.312 -400.607)" fill="#212121"/>
      </g>
    </g>
  </g>
</svg>
