<svg xmlns="http://www.w3.org/2000/svg" width="97.034" height="109.056" viewBox="0 0 97.034 109.056">
  <g id="Group_1111" data-name="Group 1111" transform="translate(1 1.107)">
    <g id="Component_7_6" data-name="Component 7 – 6" transform="translate(0 0)">
      <path id="Path_905" data-name="Path 905" d="M141.034,511.976V467.91a9.355,9.355,0,0,0-4.677-8.1L98.194,437.775a9.354,9.354,0,0,0-9.354,0L50.677,459.809A9.355,9.355,0,0,0,46,467.91v44.066a9.355,9.355,0,0,0,4.677,8.1L88.84,542.11a9.354,9.354,0,0,0,9.354,0l38.163-22.033A9.355,9.355,0,0,0,141.034,511.976Z" transform="translate(-46 -436.522)" fill="none" stroke="#ff0" stroke-miterlimit="10" stroke-width="2"/>
      <g id="Group_1062" data-name="Group 1062" transform="translate(-46 -436.522)">
        <path id="Path_901" data-name="Path 901" d="M84.335,472.817l-.522.9.522.9h1.044l.522-.9-.522-.9Z" fill="#ff0"/>
        <path id="Path_902" data-name="Path 902" d="M112.9,480.362q-.006-.211-.006-.417v-3.357a4.813,4.813,0,0,0-.237-1.888c-.685-1.7-2.354-1.983-4.1-1.983h-.11a4.176,4.176,0,0,0,.23-1.4c0-.266.011-.547.023-.835a5.716,5.716,0,0,0-.542-3.393c-.948-1.413-2.7-1.357-4.25-1.309-.271.009-.535.017-.787.017H85.358c-.568,0-1.138-.008-1.708-.016-1.128-.016-2.293-.033-3.433.016a2.885,2.885,0,0,0-2.175.978c-.864,1.018-1.134,2.766-.823,5.346a3.479,3.479,0,0,0,.131.622c-.4.005-.8.013-1.2.027a3.187,3.187,0,0,0-3.19,3.244c-.046,1.5-.055,2.842-.027,4.1a4.19,4.19,0,0,0,2.059,3.526,3.639,3.639,0,0,0,.028.471c.758,6.05,1.7,12.185,2.614,18.117.457,2.964.928,6.028,1.37,9.042q.1.67.191,1.343c.124.882.251,1.794.4,2.688a5.935,5.935,0,0,0,5.781,5c1.53.038,3.074.05,4.612.05s3.084-.013,4.6-.025,3.067-.025,4.6-.025h1.511a5.894,5.894,0,0,0,5.76-5.15c.144-.967.279-1.935.413-2.9q.105-.753.211-1.5l.535-3.781a1.082,1.082,0,0,0,.122-.858l1.71-12.077c.157-1.108.337-2.24.511-3.334.347-2.182.706-4.437.907-6.682a2.992,2.992,0,0,0,1.908-1.992,5.619,5.619,0,0,0,.131-1.655m-7.229,27.021c-.417,2.9-.789,5.3-1.169,7.533a3.916,3.916,0,0,1-3.813,3.406H88.1c-.284,0-.574.008-.868.015-1.647.041-3.351.082-4.569-1.1a5.558,5.558,0,0,1-1.31-3.472c-.022-.158-.043-.315-.066-.472l-.867-5.905Zm2.106-15.552c-.292,2.117-.577,4.271-.852,6.356-.314,2.366-.638,4.813-.973,7.218H80.128l-1.991-13.574Zm-31.4-9.572h-.031l-.106,0a1.151,1.151,0,0,1-.186,0c-.938-.112-1.122-.735-1.122-1.772,0-.5-.018-1.02-.036-1.522a21.882,21.882,0,0,1,.036-3.065c.115-1.071.844-1.154,1.861-1.154h4.081a1,1,0,0,0,.011-1.993l-.676-.007a1.022,1.022,0,0,1-1.045-.99,14.279,14.279,0,0,1,0-2.981c.14-1.2,1.787-1.1,2.987-1.031.246.015.478.029.669.029h22.356c.887,0,1.45.2,1.519,1.171.007.089.015.19.024.3.078.942.209,2.517-.373,3.2a.883.883,0,0,1-.63.322H89.233a.989.989,0,1,0,0,1.978h19.825c1.012,0,1.738.081,1.862,1.135a20.5,20.5,0,0,1,.037,3.079c-.018.505-.038,1.027-.038,1.527,0,.854-.086,1.7-1.111,1.771H94.464c-2.007,0-4.05.018-6.025.036-3.955.035-8.045.071-12.057-.036m.741,2.731c-.044-.245-.089-.5-.12-.749.066,0,.129.007.2.006l.506-.005c.252,0,.5-.005.755-.005H88.939c2.263,0,4.566.014,6.794.028,4.3.027,8.741.055,13.109-.02-.014.127-.031.254-.048.381l-.742,5.236a1.045,1.045,0,0,0-.136-.009H77.89a.315.315,0,0,0-.043,0l-.642-4.376c-.023-.154-.052-.318-.082-.489" fill="#ff0"/>
        <path id="Path_903" data-name="Path 903" d="M83.3,464.381c.939-.774,1.83-1.863,1.462-3.173a3.044,3.044,0,0,0-.982-1.378c-.759-.695-.832-.865-.163-1.829.737-1.062-1-2.065-1.731-1.011-.7,1.005-1.155,2.184-.442,3.311.275.433.729.661,1.035,1.049.277.353.43.48.143.941a3.381,3.381,0,0,1-.739.673c-1,.822.429,2.232,1.417,1.417" fill="#ff0"/>
        <path id="Path_904" data-name="Path 904" d="M88.035,463.082c.94-.775,1.831-1.864,1.463-3.174a3.054,3.054,0,0,0-.982-1.377c-.76-.7-.833-.865-.163-1.829.737-1.062-1-2.065-1.731-1.011-.7,1-1.156,2.184-.442,3.31.274.434.728.662,1.034,1.05.278.353.431.479.144.941a3.365,3.365,0,0,1-.74.673c-1,.822.429,2.232,1.417,1.417" fill="#ff0"/>
      </g>
    </g>
  </g>
</svg>
