<svg id="Group_76" data-name="Group 76" xmlns="http://www.w3.org/2000/svg" width="40.582" height="40.721" viewBox="0 0 40.582 40.721">
  <path id="Path_321" data-name="Path 321" d="M183.877,156.5a13.166,13.166,0,0,1-12.648-9.85,7.755,7.755,0,0,1,9.255-9.477,12.92,12.92,0,0,1,9.6,10.008,12.092,12.092,0,0,1,.262,4.339c-.584,3.371-1.988,4.728-5.4,4.977C184.589,156.526,184.232,156.5,183.877,156.5Z" transform="translate(-171 -137)" fill="#2d2d2d"/>
  <path id="Path_322" data-name="Path 322" d="M184.36,154.937c1.829.074,4,.21,5.223,2.4a8.087,8.087,0,0,1,.878,4.707,13.863,13.863,0,0,1-4.177,9.024c-2.81,2.706-6.165,4.227-10.118,2.9-4.364-1.469-6.231-6.071-4.543-10.7C173.39,158.426,178.562,154.948,184.36,154.937Z" transform="translate(-170.999 -133.736)" fill="#2d2d2d"/>
  <path id="Path_323" data-name="Path 323" d="M195.266,156.562a10.09,10.09,0,0,1-3.469-.6c-2.285-.957-2.834-3.006-2.935-5.139-.252-5.411,3.132-11.6,8.9-13.3,3.274-.964,6.357-.521,8.651,2.194,2.358,2.789,2.406,6.015.929,9.228A13.542,13.542,0,0,1,195.266,156.562Z" transform="translate(-167.752 -136.989)" fill="#2d2d2d"/>
  <path id="Path_324" data-name="Path 324" d="M195.37,155.033c5.543.044,10.989,3.962,12.424,8.942,1.46,5.061-1.148,9.478-6.3,10.3-3.171.508-5.894-.846-8.178-2.958a13.769,13.769,0,0,1-4.4-9.663,8.341,8.341,0,0,1,.871-4.237C190.6,155.786,192.717,155.02,195.37,155.033Z" transform="translate(-167.742 -133.719)" fill="#2d2d2d"/>
</svg>
