<svg id="Group_842" data-name="Group 842" xmlns="http://www.w3.org/2000/svg" viewBox="0 0 68.548 42.35">
  <path id="Path_529" data-name="Path 529" d="M418.256,47.523c-1.964-2.207-4.506-2.38-7.195-2.38H376.148c-5.746,0-11.5-.069-17.242,0a7.206,7.206,0,0,0-7.311,7.178c-.073,2.79,0,5.592,0,8.382V73.954a59.337,59.337,0,0,0,.069,7.356c.506,3.991,3.951,6.153,7.715,6.153h31.4a1.236,1.236,0,0,0,0-2.471H374.617c-5.244,0-10.492.065-15.736,0-3.382-.043-4.817-2.627-4.817-5.638V57.043c0-2.115-.495-5.245.626-7.159,1.4-2.386,3.808-2.27,6.15-2.27h51.234c2.921,0,5.376,1.48,5.49,4.706.091,2.586,0,5.192,0,7.78,0,6.72.252,13.491,0,20.207a4.671,4.671,0,0,1-4.582,4.684l-9.357-.02a1.236,1.236,0,0,0,0,2.471l9.357.02a7.184,7.184,0,0,0,6.593-4.561,9.723,9.723,0,0,0,.459-3.548v-23.4c0-2.947.35-6.033-1.778-8.426" transform="translate(-351.507 -45.112)" fill="#ff0"/>
  <path id="Path_530" data-name="Path 530" d="M415.654,58.176H355.008a2.66,2.66,0,0,1-2.662-2.66V54.248a2.66,2.66,0,0,1,2.662-2.66h60.646a2.66,2.66,0,0,1,2.662,2.66v1.267a2.66,2.66,0,0,1-2.662,2.66" transform="translate(-351.024 -41.382)" fill="#ff0"/>
  <path id="Path_531" data-name="Path 531" d="M371.444,62.733H357.272a.989.989,0,0,1-.985-.987v-.113a.988.988,0,0,1,.985-.987h14.172a.989.989,0,0,1,.987.987v.113a.99.99,0,0,1-.987.987" transform="translate(-348.753 -36.164)" fill="#ff0"/>
  <path id="Path_532" data-name="Path 532" d="M375.478,65.938H357.272a.987.987,0,0,1-.985-.985v-.115a.989.989,0,0,1,.985-.987h18.205a.99.99,0,0,1,.987.987v.115a.989.989,0,0,1-.987.985" transform="translate(-348.753 -34.317)" fill="#ff0"/>
  <path id="Path_533" data-name="Path 533" d="M381.671,70.4h-1.444l-.722,1.251.722,1.251h1.444l.722-1.251Z" transform="translate(-335.378 -30.547)" fill="#ff0"/>
</svg>
