<svg xmlns="http://www.w3.org/2000/svg" width="97.034" height="109.056" viewBox="0 0 97.034 109.056">
  <g id="Group_1050" data-name="Group 1050" transform="translate(-158.483 -592.256)">
    <g id="Group_1047" data-name="Group 1047">
      <path id="Path_908" data-name="Path 908" d="M231.722,629.272a11.306,11.306,0,0,0-12.029-6.049,11.151,11.151,0,0,0-3.5,1.3.511.511,0,0,0-.068.046.685.685,0,0,0-.081.041,14.2,14.2,0,0,1-9.215,1.972c-.64-.082-1.283-.206-1.918-.328a23.507,23.507,0,0,0-2.71-.409,21.485,21.485,0,0,0-17.974,35.293,21.3,21.3,0,0,0,11.354,6.967,21.835,21.835,0,0,0,5.136.614,21.146,21.146,0,0,0,9.59-2.279,21.762,21.762,0,0,0,10.417-11.592c.325-.867.576-1.752.819-2.61a16.056,16.056,0,0,1,1.975-4.866,12.462,12.462,0,0,1,2.632-2.826c.409-.32.852-.609,1.281-.891a13.305,13.305,0,0,0,1.835-1.356,11.183,11.183,0,0,0,2.461-13.023m-5.456,13.092-.342.225a13.927,13.927,0,0,0-2.785,2.457,14.815,14.815,0,0,0-3.218,6.483,19.793,19.793,0,1,1-19.332-24.03,20.364,20.364,0,0,1,4.231.449,16.671,16.671,0,0,0,8.483-.229,16.1,16.1,0,0,0,3.6-1.647A9.665,9.665,0,0,1,224,625.065a9.3,9.3,0,0,1,5.127,3.274,9.487,9.487,0,0,1-.51,12.189,12.149,12.149,0,0,1-2.351,1.836" fill="#ff0"/>
      <path id="Path_909" data-name="Path 909" d="M216.15,627.664a9.079,9.079,0,0,0-2.737,1.023.573.573,0,0,0-.064.042l0,0a.779.779,0,0,0-.082.04,11.013,11.013,0,0,1-7.3,1.509c-.464-.066-.946-.157-1.37-.238a18.858,18.858,0,0,0-2.276-.334,17.179,17.179,0,0,0-14.2,28.3,17.09,17.09,0,0,0,9.021,5.5,17.456,17.456,0,0,0,4.1.491,16.877,16.877,0,0,0,7.857-1.926,17.171,17.171,0,0,0,8.218-9.384c.225-.629.407-1.262.584-1.875a12.278,12.278,0,0,1,1.705-4.041,9.679,9.679,0,0,1,2.2-2.188c.225-.162.457-.317.681-.466l.036-.023a10.72,10.72,0,0,0,1.633-1.248,9.018,9.018,0,0,0,1.76-10.371,9.127,9.127,0,0,0-9.763-4.818m6.754,14.023a9.413,9.413,0,0,1-1.4,1.037l-.084.056,2.007-10.985c.1.114.189.229.277.349a7.319,7.319,0,0,1-.8,9.543m-8.687,3.047a.856.856,0,0,0-1.67-.376l-3.556,15.823a15.363,15.363,0,0,1-6.851,2.059l7.539-30.267q.008-.03.012-.06a13.418,13.418,0,0,0,4.434-1.669,7.681,7.681,0,0,1,1.757-.724L214.47,635.8a.856.856,0,0,0,1.67.375l1.556-6.924a7.419,7.419,0,0,1,4.235,1.2L219.383,644.4c-.24.24-.468.491-.679.744a12.162,12.162,0,0,0-2.439,5.044,15.759,15.759,0,0,1-5.189,8.513ZM203.551,631.57c.376.059.755.129,1.089.191a16.089,16.089,0,0,0,2.736.343c.165,0,.335,0,.511-.005l-7.509,30.145a15.468,15.468,0,0,1-10.009-4.329,15.475,15.475,0,0,1,9.308-26.461c.486-.047.977-.071,1.47-.071a15.716,15.716,0,0,1,2.4.187" fill="#ff0"/>
      <path id="Path_910" data-name="Path 910" d="M197.679,643.354l-3.345-.08h-.05l-1.767,2.9,1.6,2.936.024.044,3.345.08h.05l1.767-2.9-1.6-2.936Z" fill="#ff0"/>
      <path id="Path_911" data-name="Path 911" d="M215.267,639.576l-.635-.828-1.035.137-.4.964.635.828,1.035-.136Z" fill="#ff0"/>
    </g>
    <path id="Path_930" data-name="Path 930" d="M254.517,668.818V624.751a9.354,9.354,0,0,0-4.677-8.1l-38.163-22.033a9.354,9.354,0,0,0-9.354,0L164.16,616.65a9.354,9.354,0,0,0-4.677,8.1v44.067a9.352,9.352,0,0,0,4.677,8.1l38.163,22.034a9.354,9.354,0,0,0,9.354,0l38.163-22.034A9.352,9.352,0,0,0,254.517,668.818Z" fill="none" stroke="#ff0" stroke-miterlimit="10" stroke-width="2"/>
  </g>
</svg>
