<svg xmlns="http://www.w3.org/2000/svg" width="35.864" height="35.87" viewBox="0 0 35.864 35.87">
  <path id="Path_1106" data-name="Path 1106" d="M360.972,159.484c.006-.275.013-.443.013-.61q0-7.56,0-15.119c0-.779.372-1.242.993-1.247a.992.992,0,0,1,1.024.878,3.772,3.772,0,0,1,.015.509q0,7.489,0,14.98c0,.167.008.335.011.538.2.005.384.013.565.013q7.537,0,15.074,0c.859,0,1.32.411,1.26,1.11a.953.953,0,0,1-.8.893,3.23,3.23,0,0,1-.554.03q-7.512,0-15.027,0c-.154,0-.307-.032-.514-.055-.005.251-.013.43-.013.609q0,7.56,0,15.119c0,.777-.329,1.2-.949,1.24a.967.967,0,0,1-1.057-.827,3.362,3.362,0,0,1-.027-.554q0-7.512-.005-15.025c0-.152-.008-.3-.013-.491-.2-.005-.382-.014-.563-.014q-7.558,0-15.118,0c-.747,0-1.162-.32-1.214-.925a.983.983,0,0,1,.845-1.09,3.408,3.408,0,0,1,.509-.018q7.491,0,14.981,0C360.579,159.429,360.749,159.461,360.972,159.484Z" transform="translate(-344.071 -142.507)" fill="#ff0"/>
</svg>
