<svg class="mb-1" height="16" viewBox="0 0 24 16" fill="none" xmlns="http://www.w3.org/2000/svg">
    <path fill-rule="evenodd" clip-rule="evenodd" d="M12.1298 1C16.8499 1.26 20.3502 3.51022 22.4303 7.93031C22.5403 8.16031 22.53 8.33996 22.42 8.56997C20.7 12.31 17.82 14.6201 13.75 15.3201C8.61992 16.1901 3.52988 13.2902 1.51985 8.4601C1.45985 8.3301 1.46985 8.1399 1.51985 8.0099C3.21987 4.20983 6.12008 1.92994 10.2001 1.16993C10.7901 1.05992 11.3998 1.06 12.1298 1ZM11.9902 4.62019C10.0202 4.61019 8.36978 6.26033 8.35978 8.24037C8.34978 10.2004 9.99991 11.8603 11.9799 11.8703C13.95 11.8803 15.5999 10.2302 15.6099 8.25014C15.6199 6.2801 13.9702 4.63019 11.9902 4.62019Z" stroke="#FFFF00"/>
    </svg>