<svg class="mr-8" width="60" height="67" viewBox="0 0 60 67" fill="none" xmlns="http://www.w3.org/2000/svg">
    <path d="M59.3496 46.5599V20.5298C59.3496 18.1198 58.0595 15.8902 55.9795 14.6802L33.4399 1.67001C31.3499 0.470021 28.78 0.470021 26.69 1.67001L4.15033 14.6802C2.06037 15.8902 0.770508 18.1198 0.770508 20.5298V46.5599C0.770508 48.9699 2.06037 51.1897 4.15033 52.3997L26.69 65.4099C28.78 66.6199 31.3499 66.6199 33.4399 65.4099L55.9795 52.3997C58.0595 51.1897 59.3496 48.9699 59.3496 46.5599Z" fill="white"/>
    <path d="M47.8706 33.54C47.8706 23.71 39.9005 15.73 30.0605 15.73C20.2305 15.73 12.2505 23.71 12.2505 33.54C12.2505 42.43 18.7703 49.7999 27.2803 51.1299V38.6899H22.7603V33.54H27.2803V29.6201C27.2803 25.1601 29.9403 22.6899 34.0103 22.6899C35.9503 22.6899 37.9907 23.04 37.9907 23.04V27.4199H35.7505C33.5405 27.4199 32.8506 28.7902 32.8506 30.2002V33.54H37.7803L36.9907 38.6899H32.8506V51.1299C41.3606 49.7999 47.8706 42.43 47.8706 33.54Z" fill="#1877F2"/>
    <path d="M36.9911 38.6899L37.7807 33.54H32.8507V30.2002C32.8507 28.7902 33.5407 27.4199 35.7508 27.4199H37.9912V23.04C37.9912 23.04 35.9506 22.6899 34.0105 22.6899C29.9402 22.6899 27.2801 25.1601 27.2801 29.6201V33.54H22.7598V38.6899H27.2801V51.1299C28.1901 51.2799 29.1205 51.3501 30.0605 51.3501C31.0106 51.3501 31.9407 51.2799 32.8507 51.1299V38.6899H36.9911Z" fill="white"/>
</svg>
