<svg xmlns="http://www.w3.org/2000/svg" width="72.956" height="68.638" viewBox="0 0 72.956 68.638">
  <g id="Group_55" data-name="Group 55" transform="translate(0 0)">
    <path id="Path_311" data-name="Path 311" d="M173.363,179.17V149.948c-2.594.375-5.441,3.15-5.973,6.218a14.87,14.87,0,0,0,.115,5.128c.736,4.007,1.286,7.979.136,11.992-.935,3.261-3.327,5.627-6.135,5.822-6.483.449-11.37-3.2-10.983-10.212.319-5.773,2.5-10.966,5.313-15.919a26.282,26.282,0,0,0,3.877-11.9,10.5,10.5,0,0,0-2.188-7.192c-.635.768-1.242,1.523-1.873,2.256a2.769,2.769,0,0,1-3.939.575c-2.33-1.745-4.625-3.541-6.854-5.41a2.874,2.874,0,0,1-.332-4.1c.567-.756,1.185-1.473,2-2.476-1.279-.334-2.334-.653-3.408-.874a10.553,10.553,0,0,1-1.93-.2c-.5-.216-1.145-.808-1.16-1.255-.017-.418.719-1.238,1.108-1.228a16.045,16.045,0,0,1,4.594.575c4.3,1.419,7.786,4.2,10.952,7.334a24.973,24.973,0,0,1,4.349,5.289c2.048,3.649,1.842,7.678.632,11.531a52.681,52.681,0,0,1-3.523,8.235c-2.1,4.073-4.151,8.159-4.7,12.759a16.727,16.727,0,0,0,.3,5.385c.567,2.649,3.37,4.328,6.574,4.281,2.567-.037,4.191-1.465,4.945-4.32a20.371,20.371,0,0,0-.359-10.569,11.88,11.88,0,0,1,7.786-14.426c.806-.231.76-.789.76-1.407q-.009-10.042,0-20.085c0-3.22,1-4.225,4.193-4.225h27.129c3.218,0,4.17.96,4.17,4.217q0,25.825,0,51.65V179c.187.128.251.208.323.218,3.092.412,3.717,1.135,3.717,4.3,0,1.044.021,2.087-.006,3.13a3,3,0,0,1-3.208,3.164q-18.585.012-37.171,0a2.9,2.9,0,0,1-3.059-3.012c-.027-1.131-.006-2.262-.006-3.391C169.527,180.332,170.217,179.541,173.363,179.17Zm2.7-27.461c0,8.7.018,17.39-.021,26.086,0,1.108.272,1.518,1.452,1.512q13.7-.064,27.389,0c1.2.006,1.551-.358,1.549-1.564q-.055-26.02,0-52.041c0-1.172-.3-1.582-1.539-1.574q-13.63.073-27.259,0c-1.288-.008-1.6.4-1.591,1.628C176.079,134.4,176.058,143.058,176.058,151.709Zm15.258,35.535c5.087,0,10.175.008,15.262-.008,1.207,0,2.93.375,3.484-.251.647-.729.216-2.369.356-3.6.14-1.259-.323-1.6-1.578-1.593-11.653.047-23.309.027-34.962.027-.26,0-.589-.1-.77.023-.361.243-.865.571-.917.923a18.813,18.813,0,0,0-.047,2.732c0,1.747,0,1.749,1.691,1.749Q182.573,187.245,191.316,187.244Zm-38-52.346c.771-.935,1.454-1.667,2.009-2.487a1.087,1.087,0,0,0-.134-1.051q-2.915-2.4-5.933-4.679a.989.989,0,0,0-.958.091c-.694.752-1.294,1.591-1.988,2.474Z" transform="translate(-140.025 -121.179)" fill="#212121"/>
    <path id="Path_312" data-name="Path 312" d="M184.058,136.8c0,2.868.019,5.738-.006,8.608-.017,2.116-1.077,3.272-3.187,3.29q-8.739.07-17.477,0a2.923,2.923,0,0,1-3.156-3.22q-.035-8.674,0-17.347c.008-2.122,1.2-3.276,3.352-3.282q8.607-.023,17.215,0a2.929,2.929,0,0,1,3.253,3.214C184.08,130.97,184.058,133.883,184.058,136.8Zm-21.22-.072c0,2.691.031,5.387-.016,8.078-.017.915.192,1.321,1.213,1.314q8.144-.061,16.29-.006c.892.006,1.222-.272,1.216-1.191q-.047-8.144,0-16.288c0-.861-.216-1.246-1.166-1.24q-8.211.052-16.42,0c-.843,0-1.143.266-1.129,1.121C162.866,131.25,162.84,133.986,162.838,136.724Z" transform="translate(-120.982 -117.736)" fill="#212121"/>
    <path id="Path_313" data-name="Path 313" d="M170.3,142.218c-2.124,0-4.25-.012-6.374.006-.929.01-1.727-.231-1.731-1.286s.793-1.329,1.716-1.329q6.436,0,12.874,0c.921,0,1.706.321,1.673,1.374-.031.968-.771,1.244-1.656,1.238C174.63,142.21,172.462,142.218,170.3,142.218Z" transform="translate(-119.119 -103.797)" fill="#212121"/>
  </g>
</svg>
