<svg class="ml-8 cursor-pointer" width="59" height="67" viewBox="0 0 59 67" fill="none" xmlns="http://www.w3.org/2000/svg">
    <path d="M58.6699 47.1293V19.9496C58.6699 17.8996 57.57 15.9996 55.79 14.9696L32.2598 1.37926C30.4798 0.359257 28.2898 0.359257 26.5098 1.37926L2.97021 14.9696C1.19021 15.9996 0.0898438 17.8996 0.0898438 19.9496V47.1293C0.0898438 49.1793 1.19021 51.0793 2.97021 52.1093L26.5098 65.6997C28.2898 66.7297 30.4798 66.7297 32.2598 65.6997L55.79 52.1093C57.57 51.0793 58.6699 49.1793 58.6699 47.1293Z" fill="white"/>
    <path d="M14.9795 26.4107C15.8595 24.5407 17.1094 22.8703 18.6494 21.5104C21.0294 19.3004 24.0297 17.8908 27.2397 17.4508C31.8497 16.7408 36.5395 18.0604 40.0995 21.0704C40.3895 21.3004 40.3695 21.4308 40.1195 21.6808C38.6995 23.0707 37.2996 24.4704 35.9096 25.8804C35.7296 26.0704 35.6293 26.0805 35.3993 25.9205C31.1693 22.7105 25.1396 23.5404 21.9297 27.7803C21.3697 28.5303 20.9093 29.3505 20.5893 30.2305C20.5393 30.3505 20.4894 30.4603 20.4394 30.5703L14.9795 26.4107Z" fill="#E84235"/>
    <path d="M20.4498 36.6694C20.8798 37.9094 21.5496 39.0496 22.4196 40.0396C24.4796 42.3796 27.5597 43.5796 30.6697 43.2496C32.2398 43.1396 33.77 42.6597 35.12 41.8497C35.21 41.9397 35.3 42.0197 35.39 42.0997C37.0201 43.3597 38.65 44.6297 40.29 45.8897C39.08 47.0697 37.6598 48.0097 36.0898 48.6398C31.0097 50.8798 25.1295 50.3398 20.5494 47.2198C18.1194 45.6598 16.1898 43.4494 14.9697 40.8394L15.8296 40.1895L20.4498 36.6694Z" fill="#34A752"/>
    <path d="M40.2899 45.8901L35.3901 42.1C35.2901 42.03 35.2101 41.93 35.1201 41.85C36.4701 40.9799 37.5 39.6897 38.06 38.1897C38.21 37.8097 38.32 37.4197 38.39 37.0197C38.01 36.9497 37.6297 36.9299 37.2597 36.9699C34.8398 36.9699 32.4298 36.9699 30.0099 36.9699C29.7399 36.9699 29.6303 36.9198 29.6403 36.6198C29.6503 34.7398 29.6503 32.8498 29.6403 30.9697C29.6403 30.7097 29.7001 30.6396 29.9601 30.6396C34.83 30.6496 39.6997 30.6496 44.5695 30.6396C44.8395 30.6396 44.9197 30.7295 44.9597 30.9795C45.7196 34.9896 44.9896 39.1399 42.9197 42.6601C42.2397 43.8801 41.3498 44.9801 40.2899 45.8901Z" fill="#4284F3"/>
    <path d="M20.4492 36.6696L15.8295 40.1895L14.9794 40.8394C14.1995 39.3194 13.6895 37.6799 13.4595 35.9899C13.0396 33.11 13.3895 30.1701 14.4795 27.4702C14.6095 27.1002 14.7794 26.7501 14.9794 26.4102L20.439 30.5697C20.319 31.2097 20.1189 31.8401 20.0489 32.49C19.8889 33.83 20.0192 35.1899 20.4092 36.4899C20.4292 36.5499 20.4392 36.6096 20.4492 36.6696Z" fill="#F9BB05"/>
</svg>
