<svg viewBox="0 0 77 69" fill="none" xmlns="http://www.w3.org/2000/svg">
<path d="M69.9488 7.46527C65.9737 3.58903 60.7636 1.2318 55.2279 0.805043C49.6921 0.378286 44.1823 1.90908 39.66 5.13025C39.3756 5.33172 39.0356 5.43993 38.6871 5.43993C38.3386 5.43993 37.9986 5.33172 37.7142 5.13025C33.2633 1.88054 27.8094 0.303496 22.311 0.676244C18.3547 0.969332 14.5331 2.2397 11.1886 4.37337C10.5869 4.77055 10.0074 5.20056 9.45295 5.66148C8.63579 6.19996 7.90215 6.85557 7.27557 7.60731C3.21512 11.8515 0.874742 17.4519 0.707935 23.3232C0.541128 29.1945 2.55977 34.9187 6.3727 39.3866C6.43591 39.4639 6.49315 39.5458 6.54394 39.6318C6.6038 39.7339 6.67638 39.8281 6.75992 39.912L7.34367 40.4957C7.50093 40.6534 7.68775 40.7785 7.89343 40.8638C8.09911 40.9492 8.31961 40.9931 8.5423 40.9931C8.76499 40.9931 8.9855 40.9492 9.19118 40.8638C9.39686 40.7785 9.58368 40.6534 9.74093 40.4957C9.89838 40.3384 10.0233 40.1515 10.1085 39.9458C10.1937 39.7401 10.2375 39.5197 10.2375 39.2971C10.2375 39.0745 10.1937 38.854 10.1085 38.6484C10.0233 38.4427 9.89838 38.2559 9.74093 38.0985L9.3829 37.7424C9.32495 37.6524 9.25988 37.5671 9.18832 37.4874C7.3456 35.4413 5.93782 33.0422 5.05042 30.4355C4.16303 27.8289 3.81452 25.069 4.02604 22.3236C4.24004 19.6815 4.98316 17.1093 6.2112 14.7602C6.84485 13.5428 7.60116 12.3934 8.46836 11.3297C8.84391 10.8743 9.41988 10.4113 9.83045 9.88004C9.88941 9.80295 9.95448 9.73073 10.025 9.66407C13.7142 6.15598 18.5891 4.16578 23.6794 4.0897C28.7697 4.01362 33.7019 5.85724 37.4943 9.2535C37.819 9.55831 38.2476 9.72796 38.6929 9.72796C39.1383 9.72796 39.5669 9.55831 39.8916 9.2535C41.9366 7.40306 44.3368 5.98815 46.946 5.09498C49.5553 4.2018 52.3191 3.84902 55.069 4.05811C57.7154 4.26979 60.2922 5.01159 62.6461 6.23939C63.8651 6.8739 65.0159 7.63157 66.0805 8.50048C66.5378 8.87408 67.0009 9.45195 67.534 9.86252C67.6105 9.92157 67.682 9.98665 67.7481 10.0571C71.2519 13.7401 73.2424 18.6062 73.3243 23.689C73.4061 28.7718 71.5733 33.6995 68.1898 37.4933C68.1509 37.5361 68.1139 37.5828 68.0808 37.6276C68.0224 37.7142 67.9573 37.7962 67.8862 37.8728L43.9428 61.8065C42.9931 62.8789 41.9662 63.8804 40.8703 64.8031C38.2279 66.7586 36.2607 64.6084 34.5191 62.8689C30.6878 59.0395 24.072 52.4217 20.2426 48.5904C20.0872 48.4241 19.8999 48.2907 19.6919 48.1982C19.4839 48.1058 19.2595 48.0561 19.0319 48.0522C18.8043 48.0483 18.5783 48.0902 18.3672 48.1755C18.1562 48.2607 17.9644 48.3876 17.8034 48.5485C17.6424 48.7094 17.5154 48.901 17.43 49.112C17.3446 49.3229 17.3025 49.5489 17.3062 49.7765C17.3099 50.0041 17.3594 50.2286 17.4517 50.4367C17.544 50.6448 17.6772 50.8321 17.8434 50.9877C21.5599 54.7042 28.0609 61.2071 31.7775 64.9217C33.0282 66.4751 34.6167 67.7229 36.4222 68.5701C37.8578 69.0032 39.39 68.9977 40.8225 68.5543C42.255 68.1109 43.5224 67.2498 44.4623 66.0814C49.0026 61.5412 53.5429 57.0009 58.0831 52.4606L70.6376 39.9081C70.713 39.8286 70.7796 39.7412 70.8361 39.6474C70.8875 39.5589 70.9454 39.4743 71.0093 39.3944C74.8442 34.8981 76.8617 29.1319 76.6667 23.2256C76.4716 17.3192 74.0779 11.6987 69.9546 7.46527" fill="#212121"/>
<path d="M46.3478 27.6321H41.7459C41.6382 27.6316 41.5351 27.5885 41.4589 27.5124C41.3828 27.4362 41.3398 27.3331 41.3393 27.2254V22.6235C41.3357 21.9574 41.0695 21.3195 40.5984 20.8484C40.1273 20.3774 39.4895 20.1112 38.8233 20.1076H38.1325C37.4664 20.1112 36.8285 20.3774 36.3574 20.8484C35.8864 21.3195 35.6202 21.9574 35.6166 22.6235V27.2254C35.6166 27.3329 35.574 27.4361 35.4981 27.5123C35.4223 27.5885 35.3194 27.6316 35.2118 27.6321H30.61C29.9438 27.6357 29.3059 27.9019 28.8349 28.373C28.3638 28.844 28.0976 29.4819 28.094 30.1481V30.8388C28.0976 31.505 28.3638 32.1428 28.8349 32.6139C29.3059 33.085 29.9438 33.3512 30.61 33.3548H35.2118C35.3192 33.3548 35.4221 33.3974 35.498 33.4733C35.5739 33.5492 35.6166 33.6522 35.6166 33.7595V38.3614C35.6202 39.0275 35.8864 39.6654 36.3574 40.1365C36.8285 40.6075 37.4664 40.8737 38.1325 40.8773H38.8233C39.4895 40.8737 40.1273 40.6075 40.5984 40.1365C41.0695 39.6654 41.3357 39.0275 41.3393 38.3614V33.7595C41.3398 33.652 41.3828 33.549 41.4591 33.4732C41.5353 33.3973 41.6384 33.3548 41.7459 33.3548H46.3478C47.014 33.3512 47.6519 33.085 48.1229 32.6139C48.594 32.1428 48.8602 31.505 48.8638 30.8388V30.1481C48.8602 29.4819 48.594 28.844 48.1229 28.373C47.6519 27.9019 47.014 27.6357 46.3478 27.6321Z" fill="#212121"/>
<path d="M14.9636 43.088H13.045L12.0837 44.7517L13.045 46.4154H14.9675L15.9287 44.7517L14.9636 43.088Z" fill="#212121"/>
</svg>
