<svg xmlns="http://www.w3.org/2000/svg" width="97.034" height="109.056" viewBox="0 0 97.034 109.056">
  <g id="Group_1054" data-name="Group 1054" transform="translate(-45 -749.097)">
    <g id="Group_1052" data-name="Group 1052">
      <path id="Path_938" data-name="Path 938" d="M74.636,797.285a3.846,3.846,0,0,0,1.3,1.289,9.774,9.774,0,0,0,.524,4.128,6.233,6.233,0,0,0,5.386,3.708c1.788.089,3.6.006,5.386.006h18.116a6.257,6.257,0,0,0,5.558-3.521,9.538,9.538,0,0,0,.606-4.3,4.138,4.138,0,0,0,1.909-3.484c.016-1.064,0-2.129,0-3.193a3.522,3.522,0,0,0-3.4-3.773H78.044a5.111,5.111,0,0,0-1.74.2,3.459,3.459,0,0,0-2.268,3.082c-.045.764-.005,1.541-.005,2.307a6.32,6.32,0,0,0,.605,3.555m33.917,6.517a4.851,4.851,0,0,1-3.2,1.241H83.411c-.435,0-.871.009-1.306,0a4.861,4.861,0,0,1-4.763-4.275,15.264,15.264,0,0,1-.065-1.716,4.071,4.071,0,0,0,4.391-2.51h8.367a3.92,3.92,0,0,0,7.382,0h8.359a3.977,3.977,0,0,0,4.358,2.569c-.007,1.773-.166,3.4-1.581,4.691M76.085,790.037a3.53,3.53,0,0,1,2.527-.517h31.411c2.536.114,2.026,3.149,2.026,4.921,0,1.236-.163,2.414-1.383,3.061a2.608,2.608,0,0,1-3.725-1.829.7.7,0,0,0-.662-.5H96.918a.7.7,0,0,0-.662.5,2.59,2.59,0,0,1-5.059,0,.7.7,0,0,0-.662-.5H81.169a.7.7,0,0,0-.662.5,2.62,2.62,0,0,1-3.328,1.969,2.721,2.721,0,0,1-1.775-2.8c-.006-1.371-.422-3.811.681-4.8" fill="#ff0"/>
      <path id="Path_939" data-name="Path 939" d="M74.636,797.285a3.846,3.846,0,0,0,1.3,1.289,9.774,9.774,0,0,0,.524,4.128,6.233,6.233,0,0,0,5.386,3.708c1.788.089,3.6.006,5.386.006h18.116a6.257,6.257,0,0,0,5.558-3.521,9.538,9.538,0,0,0,.606-4.3,4.138,4.138,0,0,0,1.909-3.484c.016-1.064,0-2.129,0-3.193a3.522,3.522,0,0,0-3.4-3.773H78.044a5.111,5.111,0,0,0-1.74.2,3.459,3.459,0,0,0-2.268,3.082c-.045.764-.005,1.541-.005,2.307A6.32,6.32,0,0,0,74.636,797.285Zm33.917,6.517a4.851,4.851,0,0,1-3.2,1.241H83.411c-.435,0-.871.009-1.306,0a4.861,4.861,0,0,1-4.763-4.275,15.264,15.264,0,0,1-.065-1.716,4.071,4.071,0,0,0,4.391-2.51h8.367a3.92,3.92,0,0,0,7.382,0h8.359a3.977,3.977,0,0,0,4.358,2.569C110.127,800.884,109.968,802.509,108.553,803.8ZM76.085,790.037a3.53,3.53,0,0,1,2.527-.517h31.411c2.536.114,2.026,3.149,2.026,4.921,0,1.236-.163,2.414-1.383,3.061a2.608,2.608,0,0,1-3.725-1.829.7.7,0,0,0-.662-.5H96.918a.7.7,0,0,0-.662.5,2.59,2.59,0,0,1-5.059,0,.7.7,0,0,0-.662-.5H81.169a.7.7,0,0,0-.662.5,2.62,2.62,0,0,1-3.328,1.969,2.721,2.721,0,0,1-1.775-2.8C75.4,793.467,74.982,791.027,76.085,790.037Z" fill="#ff0"/>
      <path id="Path_940" data-name="Path 940" d="M119.277,813.781a4.461,4.461,0,0,0-4.349-3.8H73.842a7.254,7.254,0,0,0-3.087.386c-2.889,1.295-2.779,4.686-2.6,7.38a4.681,4.681,0,0,0,2.815,3.976c0,.192.007.383.007.571a6.184,6.184,0,0,0,3.853,6.039,8.522,8.522,0,0,0,3.169.4h32.367a6.069,6.069,0,0,0,5.954-5.471,14.3,14.3,0,0,0,.038-1.48,4.706,4.706,0,0,0,2.966-4.424,24.881,24.881,0,0,0-.046-3.571M114.19,825.3a4.676,4.676,0,0,1-3.825,2.049H81.185c-2,0-4.792.419-6.583-.653a4.646,4.646,0,0,1-2.247-3.7c-.017-.314-.021-.628-.021-.943A4.683,4.683,0,0,0,76.5,820.1H89.979a4.622,4.622,0,0,0,7.512,0h13.483a4.723,4.723,0,0,0,4.04,1.975,5.975,5.975,0,0,1-.824,3.233m3.76-8.62c0,1.383-.2,2.666-1.461,3.5a3.25,3.25,0,0,1-4.424-.9c-.4-.553-.68-.556-1.288-.556h-8.786c-1.547,0-3.1-.047-4.648,0-.944.028-1.268,1.149-2.078,1.59a3.2,3.2,0,0,1-3.386-.2c-.437-.31-.626-.772-1-1.121-.357-.333-.726-.27-1.18-.27h-8.88c-1.5,0-3.051-.122-4.544,0a1.059,1.059,0,0,0-.493.093c-.3.165-.444.58-.663.823a3.217,3.217,0,0,1-1.272.87,3.255,3.255,0,0,1-4.154-1.972,8.8,8.8,0,0,1-.176-2.836,5,5,0,0,1,.542-3.05,3.5,3.5,0,0,1,3.18-1.3H94.466c6.7,0,13.4.1,20.1,0,.121,0,.243,0,.364,0a3.086,3.086,0,0,1,3.022,3.094c.026.744,0,1.494,0,2.238" fill="#ff0"/>
      <path id="Path_941" data-name="Path 941" d="M119.277,813.781a4.461,4.461,0,0,0-4.349-3.8H73.842a7.254,7.254,0,0,0-3.087.386c-2.889,1.295-2.779,4.686-2.6,7.38a4.681,4.681,0,0,0,2.815,3.976c0,.192.007.383.007.571a6.184,6.184,0,0,0,3.853,6.039,8.522,8.522,0,0,0,3.169.4h32.367a6.069,6.069,0,0,0,5.954-5.471,14.3,14.3,0,0,0,.038-1.48,4.706,4.706,0,0,0,2.966-4.424A24.881,24.881,0,0,0,119.277,813.781ZM114.19,825.3a4.676,4.676,0,0,1-3.825,2.049H81.185c-2,0-4.792.419-6.583-.653a4.646,4.646,0,0,1-2.247-3.7c-.017-.314-.021-.628-.021-.943A4.683,4.683,0,0,0,76.5,820.1H89.979a4.622,4.622,0,0,0,7.512,0h13.483a4.723,4.723,0,0,0,4.04,1.975A5.975,5.975,0,0,1,114.19,825.3Zm3.76-8.62c0,1.383-.2,2.666-1.461,3.5a3.25,3.25,0,0,1-4.424-.9c-.4-.553-.68-.556-1.288-.556h-8.786c-1.547,0-3.1-.047-4.648,0-.944.028-1.268,1.149-2.078,1.59a3.2,3.2,0,0,1-3.386-.2c-.437-.31-.626-.772-1-1.121-.357-.333-.726-.27-1.18-.27h-8.88c-1.5,0-3.051-.122-4.544,0a1.059,1.059,0,0,0-.493.093c-.3.165-.444.58-.663.823a3.217,3.217,0,0,1-1.272.87,3.255,3.255,0,0,1-4.154-1.972,8.8,8.8,0,0,1-.176-2.836,5,5,0,0,1,.542-3.05,3.5,3.5,0,0,1,3.18-1.3H94.466c6.7,0,13.4.1,20.1,0,.121,0,.243,0,.364,0a3.086,3.086,0,0,1,3.022,3.094C117.976,815.19,117.95,815.94,117.95,816.684Z" fill="#ff0"/>
      <path id="Path_942" data-name="Path 942" d="M93.707,778.21a1.081,1.081,0,0,0-1.082,1.082V783.5a1.082,1.082,0,0,0,2.164,0v-4.207a1.082,1.082,0,0,0-1.082-1.082" fill="#ff0"/>
      <path id="Path_943" data-name="Path 943" d="M93.707,778.21a1.081,1.081,0,0,0-1.082,1.082V783.5a1.082,1.082,0,0,0,2.164,0v-4.207A1.082,1.082,0,0,0,93.707,778.21Z" fill="#ff0"/>
      <path id="Path_944" data-name="Path 944" d="M94.452,773.649H92.961l-.746,1.291.746,1.291h1.491l.745-1.291Z" fill="#ff0"/>
    </g>
    <path id="Path_963" data-name="Path 963" d="M141.034,825.659V781.592a9.352,9.352,0,0,0-4.677-8.1L98.194,751.458a9.354,9.354,0,0,0-9.354,0L50.677,773.492a9.352,9.352,0,0,0-4.677,8.1v44.067a9.355,9.355,0,0,0,4.677,8.1L88.84,855.793a9.354,9.354,0,0,0,9.354,0l38.163-22.033A9.355,9.355,0,0,0,141.034,825.659Z" fill="none" stroke="#ff0" stroke-miterlimit="10" stroke-width="2"/>
  </g>
</svg>
