<svg xmlns="http://www.w3.org/2000/svg" width="97.034" height="109.056" viewBox="0 0 97.034 109.056">
  <g id="Group_1106" data-name="Group 1106" transform="translate(-158.483 -278.573)">
    <g id="Group_1039" data-name="Group 1039">
      <path id="Path_893" data-name="Path 893" d="M254.517,355.135V311.068a9.355,9.355,0,0,0-4.677-8.1l-38.163-22.033a9.354,9.354,0,0,0-9.354,0L164.16,302.967a9.355,9.355,0,0,0-4.677,8.1v44.067a9.355,9.355,0,0,0,4.677,8.1l38.163,22.033a9.354,9.354,0,0,0,9.354,0l38.163-22.033A9.355,9.355,0,0,0,254.517,355.135Z" fill="currentColor" stroke="#ff0" stroke-miterlimit="10" stroke-width="2"/>
      <path id="Path_851" data-name="Path 851" d="M218.327,341.678h-1.157l-.579,1,.579,1h1.157l.579-1Z" fill="#ff0"/>
      <path id="Path_852" data-name="Path 852" d="M226.911,323c-1.478-2.238-4.464-2.713-6.89-3.339a52.1,52.1,0,0,0-26.988.25c-2.362.657-5,1.149-6.228,3.545a5.869,5.869,0,0,0,.46,5.852l2.82,4.884,5.049,8.745,5.151,8.921q1.663,2.881,3.328,5.764a16.9,16.9,0,0,0,1.657,2.781,2.3,2.3,0,0,0,3.558-.165.945.945,0,0,0,.141-.186.846.846,0,0,0,.064-.112q3.793-6.572,7.589-13.143a.86.86,0,0,0-1.49-.861l-7.283,12.614-.366.634c-.732,1.081-1.724-1.285-1.978-1.725l-2.969-5.142-5.657-9.8-3.735-6.469-3.265-5.656a28.008,28.008,0,0,1-1.692-2.975,3.752,3.752,0,0,1,.7-3.961,6,6,0,0,1,2.994-1.422A55.116,55.116,0,0,1,202.7,319.9a50.367,50.367,0,0,1,13.113.593,53.3,53.3,0,0,1,5.433,1.284,18.394,18.394,0,0,1,2.722.84,3.789,3.789,0,0,1,1.462,5.485c-.781,1.364-1.572,2.722-2.357,4.083l-3.945,6.832a.851.851,0,0,0,.136,1.028l.012.013a.851.851,0,0,0,1.339-.177l3.5-6.055,2.7-4.676a5.685,5.685,0,0,0,.1-6.156" fill="#ff0"/>
      <path id="Path_853" data-name="Path 853" d="M226.911,323c-1.478-2.238-4.464-2.713-6.89-3.339a52.1,52.1,0,0,0-26.988.25c-2.362.657-5,1.149-6.228,3.545a5.869,5.869,0,0,0,.46,5.852l2.82,4.884,5.049,8.745,5.151,8.921q1.663,2.881,3.328,5.764a16.9,16.9,0,0,0,1.657,2.781,2.3,2.3,0,0,0,3.558-.165.945.945,0,0,0,.141-.186.846.846,0,0,0,.064-.112q3.793-6.572,7.589-13.143a.86.86,0,0,0-1.49-.861l-7.283,12.614-.366.634c-.732,1.081-1.724-1.285-1.978-1.725l-2.969-5.142-5.657-9.8-3.735-6.469-3.265-5.656a28.008,28.008,0,0,1-1.692-2.975,3.752,3.752,0,0,1,.7-3.961,6,6,0,0,1,2.994-1.422A55.116,55.116,0,0,1,202.7,319.9a50.367,50.367,0,0,1,13.113.593,53.3,53.3,0,0,1,5.433,1.284,18.394,18.394,0,0,1,2.722.84,3.789,3.789,0,0,1,1.462,5.485c-.781,1.364-1.572,2.722-2.357,4.083l-3.945,6.832a.851.851,0,0,0,.136,1.028l.012.013a.851.851,0,0,0,1.339-.177l3.5-6.055,2.7-4.676A5.685,5.685,0,0,0,226.911,323Z" fill="#ff0"/>
      <path id="Path_854" data-name="Path 854" d="M230.048,313a8.2,8.2,0,0,0-2.8-3.711,13.723,13.723,0,0,0-5.029-1.918,63.676,63.676,0,0,0-26.635-.813,36.963,36.963,0,0,0-6.982,1.726,8.066,8.066,0,0,0-5.083,8.484,3.944,3.944,0,0,0,.958,2.47,2.6,2.6,0,0,0,2.286.637.874.874,0,0,0,.161-.03.883.883,0,0,0,.11-.03c6.419-1.784,13.158-3.343,19.846-3.368,6.829-.027,13.514,1.7,20.084,3.363,3.9.989,4-4.4,3.083-6.81m-20.23-5.7-7.694,7.694a83.3,83.3,0,0,0-12.216,2.275l8.019-8.019q.723-.721,1.445-1.445a.992.992,0,0,0,.092-.107,61.123,61.123,0,0,1,10.354-.4m-24.553,7.448a6.5,6.5,0,0,1,2.017-3.67,9.312,9.312,0,0,1,4.187-1.848c1.7-.445,3.424-.812,5.157-1.112l-8.511,8.512q-.722.722-1.444,1.444a.975.975,0,0,0-.07.077l-.133.037c-1.539.322-1.359-2.549-1.2-3.44m20.973-.012c-.494.011-.987.031-1.481.057l7.2-7.2a.9.9,0,0,0,.121-.148,61.546,61.546,0,0,1,9.372,1.507c.356.086.719.169,1.084.256l-6.359,6.359a52.256,52.256,0,0,0-9.936-.832m22.085,3.287c-.423.362-.985.105-1.45-.021q-.836-.228-1.674-.443c-2.287-.587-4.618-1.147-6.971-1.613l6.071-6.071a.907.907,0,0,0,.111-.134,7.225,7.225,0,0,1,1.785.9,6.422,6.422,0,0,1,2.644,5.222c0,.611-.011,1.728-.516,2.161" fill="#ff0"/>
      <path id="Path_855" data-name="Path 855" d="M230.048,313a8.2,8.2,0,0,0-2.8-3.711,13.723,13.723,0,0,0-5.029-1.918,63.676,63.676,0,0,0-26.635-.813,36.963,36.963,0,0,0-6.982,1.726,8.066,8.066,0,0,0-5.083,8.484,3.944,3.944,0,0,0,.958,2.47,2.6,2.6,0,0,0,2.286.637.874.874,0,0,0,.161-.03.883.883,0,0,0,.11-.03c6.419-1.784,13.158-3.343,19.846-3.368,6.829-.027,13.514,1.7,20.084,3.363C230.869,320.8,230.961,315.407,230.048,313Zm-20.23-5.7-7.694,7.694a83.3,83.3,0,0,0-12.216,2.275l8.019-8.019q.723-.721,1.445-1.445a.992.992,0,0,0,.092-.107A61.123,61.123,0,0,1,209.818,307.3Zm-24.553,7.448a6.5,6.5,0,0,1,2.017-3.67,9.312,9.312,0,0,1,4.187-1.848c1.7-.445,3.424-.812,5.157-1.112l-8.511,8.512q-.722.722-1.444,1.444a.975.975,0,0,0-.07.077l-.133.037C184.929,318.508,185.109,315.637,185.265,314.746Zm20.973-.012c-.494.011-.987.031-1.481.057l7.2-7.2a.9.9,0,0,0,.121-.148,61.546,61.546,0,0,1,9.372,1.507c.356.086.719.169,1.084.256l-6.359,6.359A52.256,52.256,0,0,0,206.238,314.734Zm22.085,3.287c-.423.362-.985.105-1.45-.021q-.836-.228-1.674-.443c-2.287-.587-4.618-1.147-6.971-1.613l6.071-6.071a.907.907,0,0,0,.111-.134,7.225,7.225,0,0,1,1.785.9,6.422,6.422,0,0,1,2.644,5.222C228.835,316.471,228.828,317.588,228.323,318.021Z" fill="#ff0"/>
      <path id="Path_856" data-name="Path 856" d="M198.736,327.891,196.6,329.8l.582,2.806,2.722.9,2.14-1.908-.582-2.806Z" fill="#ff0"/>
      <path id="Path_857" data-name="Path 857" d="M198.736,327.891,196.6,329.8l.582,2.806,2.722.9,2.14-1.908-.582-2.806Z" fill="#ff0"/>
      <path id="Path_858" data-name="Path 858" d="M216.453,330.6l-1.975-1.742-2.5.84-.521,2.582,1.976,1.742,2.5-.84Z" fill="#ff0"/>
      <path id="Path_859" data-name="Path 859" d="M216.453,330.6l-1.975-1.742-2.5.84-.521,2.582,1.976,1.742,2.5-.84Z" fill="#ff0"/>
      <path id="Path_860" data-name="Path 860" d="M208.516,341.045H205.47l-1.523,2.638,1.523,2.638h3.046l1.523-2.638Z" fill="#ff0"/>
      <path id="Path_861" data-name="Path 861" d="M208.516,341.045H205.47l-1.523,2.638,1.523,2.638h3.046l1.523-2.638Z" fill="#ff0"/>
    </g>

  </g>
</svg>
