<svg xmlns="http://www.w3.org/2000/svg" width="37.802" height="40.625" viewBox="0 0 37.802 40.625">
  <g id="Group_1213" data-name="Group 1213" transform="translate(-407.565 -290.304)">
    <path id="Trazado_791" data-name="Trazado 791" d="M433.154,325.466H420.105a6,6,0,0,0-.621.01,1.239,1.239,0,0,0,.015,2.474c.187.018.377.008.565.008h13.209c-.2.217-.318.354-.444.479-1.229,1.225-2.461,2.446-3.685,3.675a1.256,1.256,0,0,0-.12,1.932,1.293,1.293,0,0,0,1.906-.189q3.064-3.055,6.12-6.12a1.257,1.257,0,0,0,.029-2.015c-2.049-2.059-4.093-4.121-6.172-6.149a2.016,2.016,0,0,0-1.138-.5,1.057,1.057,0,0,0-1.062.785,1.193,1.193,0,0,0,.328,1.344q1.862,1.857,3.728,3.712a5.707,5.707,0,0,0,.482.39Z" transform="translate(-5.957 -15.926)" fill="#ff0"/>
    <path id="Path_1042" data-name="Path 1042" d="M446.073,285.315a20.287,20.287,0,0,0-17.727,9.254,1.223,1.223,0,0,0,1.038,1.876h.073a1.258,1.258,0,0,0,1.055-.561,17.776,17.776,0,1,1-.01,19.449,1.184,1.184,0,0,0-.988-.546h-.045a1.272,1.272,0,0,0-1.058,1.976,20.311,20.311,0,1,0,17.661-31.449Z" transform="translate(-20.333 5)" fill="#ff0"/>
    <path id="Path_1043" data-name="Path 1043" d="M409.874,333.392h-1.539l-.769,1.231.769,1.231h1.539l.77-1.231Z" transform="translate(0 -23.852)" fill="#ff0"/>
  </g>
</svg>
