<svg xmlns="http://www.w3.org/2000/svg" width="97.034" height="109.056" viewBox="0 0 97.034 109.056">
  <g id="Group_1109" data-name="Group 1109" transform="translate(-271.966 -278.573)">
    <g id="Group_1040" data-name="Group 1040">
      <path id="Path_862" data-name="Path 862" d="M317.628,317.1c3.5,0,6.239-1.229,6.239-2.8s-2.741-2.8-6.239-2.8-6.238,1.229-6.238,2.8,2.74,2.8,6.238,2.8" fill="#ff0"/>
      <path id="Path_863" data-name="Path 863" d="M334.6,324.542l-.659,1.142.659,1.142h1.318l.659-1.142-.659-1.142Z" fill="#ff0"/>
      <path id="Path_864" data-name="Path 864" d="M301.383,338.922a19.668,19.668,0,0,0,8.309,3.528,37.279,37.279,0,0,0,7.764.807q1.953,0,3.933-.2a26.511,26.511,0,0,0,10.6-2.991c1.9-1.078,4.2-2.946,4.383-5.7a1.21,1.21,0,0,0,.019-.247v-4.846a1.128,1.128,0,0,0-2.255,0v4.841c-.039,1.43-1.071,2.716-3.156,3.93a22.43,22.43,0,0,1-7.88,2.535c-6.823,1.067-13.47.3-18.237-2.119-1.5-.757-3.526-1.98-3.878-3.841a2.613,2.613,0,0,1-.042-.569l-.005-15.867c.116.089.234.175.353.258a21.229,21.229,0,0,0,8.379,2.97,46.287,46.287,0,0,0,11.61.516,30.5,30.5,0,0,0,10.731-2.5,11.914,11.914,0,0,0,2.125-1.252v4.066a1.128,1.128,0,1,0,2.255,0V314.62a.694.694,0,0,0-.007-.089.742.742,0,0,0,.007-.119,1.094,1.094,0,0,0-.019-.251c-.155-1.678-1.327-3.14-3.484-4.345a25.853,25.853,0,0,0-8.877-2.639,46.884,46.884,0,0,0-11.7-.16,28.747,28.747,0,0,0-9.392,2.415c-2.442,1.173-3.846,2.611-4.175,4.275a3.549,3.549,0,0,0-.059.913v19.505a.921.921,0,0,0,.016.168,6.412,6.412,0,0,0,2.684,4.629m1.92-27.154a22.689,22.689,0,0,1,7.309-2.257,44.164,44.164,0,0,1,10-.427,31,31,0,0,1,9.575,1.937c1.811.728,3.9,1.77,3.953,3.376-.046,1.367-1.593,2.292-3.1,3.016a25.277,25.277,0,0,1-7.928,2.079c-4.871.6-11.988.8-18.231-1.705-1.043-.418-3.487-1.4-3.9-3.019-.257-1,.505-1.981,2.329-3" fill="#ff0"/>
      <path id="Path_865" data-name="Path 865" d="M304.362,321.909h-1.446l-.723,1.253.723,1.252h1.446l.723-1.252Z" fill="#ff0"/>
      <path id="Path_866" data-name="Path 866" d="M302.916,326.714l-.723,1.252.723,1.253h1.446l.723-1.253-.723-1.252Z" fill="#ff0"/>
      <path id="Path_867" data-name="Path 867" d="M358.808,340.46a1.178,1.178,0,0,0-1.114-.458l-10.852,1.483,6.9-3.12a.948.948,0,0,0,.6-.78,1.218,1.218,0,0,0-.523-1.075,1.151,1.151,0,0,0-1.17-.114l-13.611,6.156-39.323,5.373a.927.927,0,0,0-.837,1.1,1.229,1.229,0,0,0,1.379,1.084l31.617-4.32-32.55,14.72a.966.966,0,0,0-.5,1.336,1.244,1.244,0,0,0,1.106.741,1.182,1.182,0,0,0,.49-.108l39.263-17.756,18.557-2.536a.923.923,0,0,0,.775-.56,1.206,1.206,0,0,0-.2-1.168" fill="#ff0"/>
    </g>
    <path id="Path_894" data-name="Path 894" d="M368,355.135V311.068a9.354,9.354,0,0,0-4.677-8.1L325.16,280.934a9.354,9.354,0,0,0-9.354,0l-38.163,22.033a9.354,9.354,0,0,0-4.677,8.1v44.067a9.354,9.354,0,0,0,4.677,8.1l38.163,22.033a9.354,9.354,0,0,0,9.354,0l38.163-22.033A9.354,9.354,0,0,0,368,355.135Z" fill="none" stroke="#ff0" stroke-miterlimit="10" stroke-width="2"/>
  </g>
</svg>
