<svg xmlns="http://www.w3.org/2000/svg" width="97.034" height="109.056" viewBox="0 0 97.034 109.056">
  <g id="Group_1046" data-name="Group 1046" transform="translate(-158.483 -435.414)">
    <g id="Group_1044" data-name="Group 1044">
      <path id="Path_898" data-name="Path 898" d="M238.26,496.849a32.146,32.146,0,0,0-25.843-24.071,34.266,34.266,0,0,0-5.37-.452,32.451,32.451,0,0,0-31.214,24.523c-.39,1.614-.956,3.556-.478,5.2a4.726,4.726,0,0,0,3.22,3.193,8.77,8.77,0,0,0,2.4.174h50.632c2.847,0,6.146.094,7.133-3.367.469-1.648-.088-3.582-.479-5.2m-60.593.691a30.212,30.212,0,0,1,24.171-22.826,28.343,28.343,0,0,1,2.915-.355l-23.775,23.775-3.573,3.573c-.028.029-.048.058-.072.088-.506-1.3.03-2.964.334-4.255m29.131-3.231h0a.974.974,0,0,0-1.375,0l-9.161,9.162h-12.6c-1.373,0-3.545.322-4.985-.3a1,1,0,0,0,.1-.085L203.962,477.9l3.573-3.573c.015-.015.023-.03.037-.045a30.352,30.352,0,0,1,14.046,3.833l-9.357,9.357a.972.972,0,0,0,1.375,1.375l6.645-6.646,3.052-3.051a30.628,30.628,0,0,1,9.2,9.21.951.951,0,0,0-.128.105L217.4,503.471H199.012l7.786-7.787a.972.972,0,0,0,0-1.375m29.432,8.315a2.856,2.856,0,0,1-2.084.847c-.639.016-1.28,0-1.919,0H220.15l13.4-13.4a29.6,29.6,0,0,1,2.916,7.645c.359,1.567,1.019,3.585-.238,4.91" fill="#ff0"/>
      <path id="Path_899" data-name="Path 899" d="M210.15,490.146h-1.32l-.66,1.143.66,1.143h1.32l.66-1.143Z" fill="#ff0"/>
      <path id="Path_900" data-name="Path 900" d="M229.843,474.8a12.277,12.277,0,0,0-3.535-.745,12.69,12.69,0,0,0-16.971-3.662,12.746,12.746,0,0,0-21.826,4.836,12.825,12.825,0,0,0-11.81,19.411,12.682,12.682,0,0,0,1.342,1.822,7.975,7.975,0,0,1,.506-2.529,10.884,10.884,0,0,1,9.552-16.785,13.042,13.042,0,0,0,.041,3.83,8.46,8.46,0,0,1,1.781-1.64,10.823,10.823,0,0,1,1.454-5.948,10.97,10.97,0,0,1,11.61-5.165,10.853,10.853,0,0,1,6.7,4.494,12.157,12.157,0,0,1,2.7.835,13.059,13.059,0,0,0-.875-1.6,10.724,10.724,0,0,1,13.381,2.179,13.149,13.149,0,0,0-5.33,1.91,5.991,5.991,0,0,1,1.841,1.181,10.815,10.815,0,0,1,7.256-1.036,11.012,11.012,0,0,1,8.665,10.656,11.305,11.305,0,0,1-1.371,5.224,1.161,1.161,0,0,1,.953.9,2.327,2.327,0,0,0,.33.709,13.232,13.232,0,0,0,2.032-6.834,13,13,0,0,0-8.43-12.048" fill="#ff0"/>
    </g>
    <path id="Path_906" data-name="Path 906" d="M254.517,511.976V467.91a9.355,9.355,0,0,0-4.677-8.1l-38.163-22.034a9.354,9.354,0,0,0-9.354,0L164.16,459.809a9.355,9.355,0,0,0-4.677,8.1v44.066a9.355,9.355,0,0,0,4.677,8.1l38.163,22.033a9.354,9.354,0,0,0,9.354,0l38.163-22.033A9.355,9.355,0,0,0,254.517,511.976Z" fill="none" stroke="#ff0" stroke-miterlimit="10" stroke-width="2"/>
  </g>
</svg>
