<svg xmlns="http://www.w3.org/2000/svg" width="130.607" height="148.528" viewBox="0 0 130.607 148.528">
  <g id="Group_968" data-name="Group 968" transform="translate(0)">
    <path id="Path_780" data-name="Path 780" d="M194.556,432.58V365.7a7.385,7.385,0,0,0-3.693-6.4l-57.918-33.44a7.387,7.387,0,0,0-7.386,0l-57.918,33.44a7.385,7.385,0,0,0-3.693,6.4V432.58a7.387,7.387,0,0,0,3.693,6.4l57.918,33.439a7.388,7.388,0,0,0,7.386,0l57.918-33.439A7.387,7.387,0,0,0,194.556,432.58Z" transform="translate(-63.949 -324.877)" fill="#ff0"/>
    <g id="Group_967" data-name="Group 967" transform="translate(43.63 45.692)">
      <path id="Path_781" data-name="Path 781" d="M147.088,408a23.278,23.278,0,0,0-6.323-14.5c-1.373-1.433-3.444-3.6-6.089-3.281a4.992,4.992,0,0,0-2.771,1.391,9.656,9.656,0,0,1-4.5,2.613,8.768,8.768,0,0,1-4.722-.249,9.181,9.181,0,0,1-2.984-1.9l-.013-.011c-.371-.312-.754-.636-1.175-.946-1.839-1.356-4.147-1.2-6.174.418a23.009,23.009,0,0,0-8.137,13.705,24.276,24.276,0,0,0-.014,8.613c.383,2.148,1.022,5.745,3.609,7.086a7.017,7.017,0,0,0,3.164.579c.415,0,.821-.014,1.214-.027l.048,0c.362-.012.705-.023,1.035-.023H120.6a1.173,1.173,0,0,0,0-2.346h-7.975c-.263,0-.524.008-.819.019-1.54.046-3.133.1-3.986-1.294-1.455-2.371-1.718-5.969-1.682-8.57a21.145,21.145,0,0,1,1.571-7.766,20.54,20.54,0,0,1,3.743-5.944,15.528,15.528,0,0,1,2.75-2.531c1.6-1.063,2.679-.139,3.825.84l.012.011c.234.2.5.426.766.629a11.136,11.136,0,0,0,12.085.85,9.255,9.255,0,0,0,1.648-1.3,7.913,7.913,0,0,1,1.685-1.3c1.649-.834,3.186.7,4.306,1.815l.174.173a20.674,20.674,0,0,1,4.522,6.768,21.5,21.5,0,0,1,1.57,8.07c0,2.775-.371,9.258-3.806,9.529H130.357a1.173,1.173,0,0,0,0,2.346h10.635a1.2,1.2,0,0,0,.279-.033c6.365-.793,5.962-11.331,5.816-13.436" transform="translate(-103.804 -364.381)" fill="#212121"/>
      <path id="Path_782" data-name="Path 782" d="M114.923,383.548c.187.324.369.66.561,1.017.955,1.772,2.036,3.781,4.117,4.4a10.587,10.587,0,0,0,3.049.365c.744,0,1.505-.041,2.239-.079h.02c.661-.035,1.345-.071,1.981-.071,2.6,0,4.482-.448,5.852-2.673,1.1-1.778,2.368-3.886,3.486-6.036,1.433-2.755.153-4.927-1.2-7.225l-.046-.079q-.167-.282-.334-.57c-.2-.343-.391-.693-.576-1.03l-.008-.013c-1.292-2.354-2.512-4.575-5.477-4.905a1.269,1.269,0,0,0-.24-.023h0a1.347,1.347,0,0,0-.189,0q-1.023,0-2.046-.007h-.126c-1.544-.007-2.935-.01-4.332.007a5.791,5.791,0,0,0-5.4,3.341c-.348.6-.746,1.237-1.095,1.8l-.013.022a27.666,27.666,0,0,0-2.333,4.262c-.97,2.427.305,4.517,1.544,6.543.192.314.39.639.573.957m16.121,1.212a3.913,3.913,0,0,1-1.434,1.676,4.256,4.256,0,0,1-2.319.4c-.729-.011-1.5.007-2.241.023h-.084c-1.25.028-2.544.058-3.81-.028-1.842-.123-2.669-1.665-3.47-3.156l-.015-.03c-.131-.246-.281-.523-.429-.779-.192-.333-.412-.677-.645-1.042-1.05-1.644-2.241-3.509-1.457-5.251a27.152,27.152,0,0,1,1.741-3.089l.016-.027c.3-.486.614-.987.9-1.486.1-.172.195-.349.291-.527l.01-.016a8.205,8.205,0,0,1,.933-1.464,3.281,3.281,0,0,1,2.85-1h6.444c1.859.141,2.854,2.065,3.733,3.762l.019.035c.176.342.36.694.543,1.012.152.264.314.528.471.783l.02.032c.949,1.544,1.846,3,1.015,4.827a31.642,31.642,0,0,1-1.942,3.445c-.322.519-.686,1.107-1.013,1.671l-.127.222" transform="translate(-102.983 -366.615)" fill="#212121"/>
      <path id="Path_783" data-name="Path 783" d="M123.027,416.6l-.7,1.21.7,1.21h1.4l.7-1.21-.7-1.21Z" transform="translate(-102.049 -361.879)" fill="#212121"/>
    </g>
  </g>
</svg>
