<svg width="45" height="50"  viewBox="0 0 45 50" fill="none" xmlns="http://www.w3.org/2000/svg">
<path d="M27.3824 15.825L27.9304 14.876L27.3824 13.926H26.2824L25.7344 14.876L26.2824 15.825H27.3824Z" fill="currentColor"/>
<path d="M27.3824 15.825L27.9304 14.876L27.3824 13.926H26.2824L25.7344 14.876L26.2824 15.825H27.3824Z" fill="#212121"/>
<path d="M1.23472 20.468C1.76484 20.9268 2.44267 21.1789 3.14372 21.178C3.43872 21.188 3.73572 21.185 4.02472 21.178C4.16972 21.178 4.31472 21.178 4.45872 21.178H39.2737C39.5147 21.178 39.7737 21.188 40.0467 21.198C40.3467 21.209 40.6607 21.22 40.9717 21.22C41.9759 21.3202 42.9798 21.0265 43.7717 20.401C44.1846 19.9574 44.4612 19.4044 44.5686 18.808C44.6761 18.2116 44.6098 17.5968 44.3777 17.037C44.0354 15.8599 43.6007 14.7117 43.0777 13.603C41.5061 10.2885 39.1585 7.40163 36.234 5.18719C33.3095 2.97276 29.8943 1.49599 26.2777 0.882019C25.0184 0.675606 23.7448 0.568293 22.4687 0.561035C17.5117 0.589176 12.6965 2.21892 8.74139 5.20721C4.78625 8.19551 1.90303 12.3822 0.521723 17.143C0.290132 17.7043 0.234301 18.3226 0.361606 18.9163C0.488912 19.51 0.793362 20.0511 1.23472 20.468ZM18.9107 2.73102C20.0862 2.53156 21.2764 2.43121 22.4687 2.43103C27.0357 2.45271 31.472 3.9577 35.1095 6.71936C38.747 9.48102 41.3887 13.3498 42.6367 17.743C42.7102 17.9372 42.7407 18.1451 42.7262 18.3522C42.7117 18.5594 42.6525 18.7609 42.5527 18.943C42.4645 19.0547 42.352 19.1447 42.2238 19.2064C42.0956 19.2681 41.955 19.2997 41.8127 19.299C41.7497 19.299 41.6847 19.299 41.6217 19.299H6.39772C6.03472 19.299 5.66372 19.309 5.30372 19.319C4.57722 19.35 3.84961 19.344 3.12372 19.301C2.97992 19.3012 2.83795 19.2687 2.70854 19.206C2.57914 19.1433 2.46567 19.052 2.37672 18.939C2.27806 18.7565 2.21985 18.5548 2.20604 18.3477C2.19224 18.1407 2.22317 17.9331 2.29672 17.739C2.60159 16.6333 2.99899 15.5551 3.48472 14.516C4.91792 11.4553 7.06865 8.78577 9.75423 6.73407C12.4398 4.68236 15.5809 3.30913 18.9107 2.73102Z" fill="#212121"/>
<path d="M1.23472 20.468C1.76484 20.9268 2.44267 21.1789 3.14372 21.178C3.43872 21.188 3.73572 21.185 4.02472 21.178C4.16972 21.178 4.31472 21.178 4.45872 21.178H39.2737C39.5147 21.178 39.7737 21.188 40.0467 21.198C40.3467 21.209 40.6607 21.22 40.9717 21.22C41.9759 21.3202 42.9798 21.0265 43.7717 20.401C44.1846 19.9574 44.4612 19.4044 44.5686 18.808C44.6761 18.2116 44.6098 17.5968 44.3777 17.037C44.0354 15.8599 43.6007 14.7117 43.0777 13.603C41.5061 10.2885 39.1585 7.40163 36.234 5.18719C33.3095 2.97276 29.8943 1.49599 26.2777 0.882019C25.0184 0.675606 23.7448 0.568293 22.4687 0.561035C17.5117 0.589176 12.6965 2.21892 8.74139 5.20721C4.78625 8.19551 1.90303 12.3822 0.521723 17.143C0.290132 17.7043 0.234301 18.3226 0.361606 18.9163C0.488912 19.51 0.793362 20.0511 1.23472 20.468ZM18.9107 2.73102C20.0862 2.53156 21.2764 2.43121 22.4687 2.43103C27.0357 2.45271 31.472 3.9577 35.1095 6.71936C38.747 9.48102 41.3887 13.3498 42.6367 17.743C42.7102 17.9372 42.7407 18.1451 42.7262 18.3522C42.7117 18.5594 42.6525 18.7609 42.5527 18.943C42.4645 19.0547 42.352 19.1447 42.2238 19.2064C42.0956 19.2681 41.955 19.2997 41.8127 19.299C41.7497 19.299 41.6847 19.299 41.6217 19.299H6.39772C6.03472 19.299 5.66372 19.309 5.30372 19.319C4.57722 19.35 3.84961 19.344 3.12372 19.301C2.97992 19.3012 2.83795 19.2687 2.70854 19.206C2.57914 19.1433 2.46567 19.052 2.37672 18.939C2.27806 18.7565 2.21985 18.5548 2.20604 18.3477C2.19224 18.1407 2.22317 17.9331 2.29672 17.739C2.60159 16.6333 2.99899 15.5551 3.48472 14.516C4.91792 11.4553 7.06865 8.78577 9.75423 6.73407C12.4398 4.68236 15.5809 3.30913 18.9107 2.73102Z" fill="#212121"/>
<path d="M14.8941 9.12897L15.4421 8.17899L14.8941 7.22998H13.7941L13.2461 8.17899L13.7941 9.12897H14.8941Z" fill="#212121"/>
<path d="M14.8941 9.12897L15.4421 8.17899L14.8941 7.22998H13.7941L13.2461 8.17899L13.7941 9.12897H14.8941Z" fill="#212121"/>
<path d="M23.0113 9.12897L23.5593 8.17899L23.0113 7.22998H21.9113L21.3633 8.17899L21.9113 9.12897H23.0113Z" fill="#212121"/>
<path d="M23.0113 9.12897L23.5593 8.17899L23.0113 7.22998H21.9113L21.3633 8.17899L21.9113 9.12897H23.0113Z" fill="#212121"/>
<path d="M31.1285 9.12897L31.6765 8.17899L31.1285 7.22998H30.0285L29.4805 8.17899L30.0285 9.12897H31.1285Z" fill="#212121"/>
<path d="M31.1285 9.12897L31.6765 8.17899L31.1285 7.22998H30.0285L29.4805 8.17899L30.0285 9.12897H31.1285Z" fill="#212121"/>
<path d="M9.898 15.825L10.446 14.876L9.898 13.926H8.798L8.25 14.876L8.798 15.825H9.898Z" fill="#212121"/>
<path d="M9.898 15.825L10.446 14.876L9.898 13.926H8.798L8.25 14.876L8.798 15.825H9.898Z" fill="#212121"/>
<path d="M18.6382 15.825L19.1862 14.876L18.6382 13.926H17.5382L16.9902 14.876L17.5382 15.825H18.6382Z" fill="#212121"/>
<path d="M18.6382 15.825L19.1862 14.876L18.6382 13.926H17.5382L16.9902 14.876L17.5382 15.825H18.6382Z" fill="#212121"/>
<path d="M15.4976 37.2171L16.0456 36.2681L15.4976 35.3181H14.3976L13.8496 36.2681L14.3976 37.2171H15.4976Z" fill="#212121"/>
<path d="M15.4976 37.2171L16.0456 36.2681L15.4976 35.3181H14.3976L13.8496 36.2681L14.3976 37.2171H15.4976Z" fill="#212121"/>
<path d="M27.3824 15.825L27.9304 14.876L27.3824 13.926H26.2824L25.7344 14.876L26.2824 15.825H27.3824Z" fill="#212121"/>
<path d="M27.3824 15.825L27.9304 14.876L27.3824 13.926H26.2824L25.7344 14.876L26.2824 15.825H27.3824Z" fill="#212121"/>
<path d="M36.1265 15.825L36.6745 14.876L36.1265 13.926H35.0265L34.4785 14.876L35.0265 15.825H36.1265Z" fill="#212121"/>
<path d="M36.1265 15.825L36.6745 14.876L36.1265 13.926H35.0265L34.4785 14.876L35.0265 15.825H36.1265Z" fill="#212121"/>
<path d="M39.7747 35.3251C39.2747 35.3251 38.7747 35.3251 38.2747 35.3251H20.1547C19.7165 35.3237 19.2825 35.4094 18.8777 35.5771C18.4729 35.7448 18.1054 35.9912 17.7967 36.3021C17.7276 36.3711 17.6805 36.459 17.6614 36.5547C17.6423 36.6505 17.6521 36.7497 17.6895 36.8399C17.7269 36.9301 17.7902 37.0072 17.8714 37.0613C17.9526 37.1155 18.0481 37.1443 18.1457 37.1441H34.2767C34.8934 37.1441 35.5114 37.1441 36.1307 37.1441C37.3447 37.1441 38.5997 37.1361 39.8307 37.1441C40.2353 37.1481 40.6347 37.2361 41.0035 37.4026C41.3723 37.5691 41.7024 37.8105 41.9729 38.1114C42.2435 38.4123 42.4485 38.7662 42.575 39.1506C42.7015 39.5349 42.7467 39.9414 42.7077 40.3441C42.7077 43.0671 41.7587 45.0761 39.8867 46.3151C38.8438 47.0076 37.6215 47.3805 36.3697 47.3881H9.7997C9.39069 47.3881 8.98169 47.3881 8.57269 47.3881C7.46136 47.3869 6.36955 47.0959 5.40503 46.5439C4.44051 45.9918 3.63662 45.1978 3.07269 44.2402C2.49216 43.2301 2.19246 42.0831 2.20469 40.9181V40.8311C2.08123 39.8953 2.30461 38.9466 2.83269 38.1641C3.17287 37.7965 3.59391 37.5131 4.06252 37.3362C4.53113 37.1594 5.03445 37.094 5.53269 37.1452H9.84169C10.2599 37.1456 10.6741 37.063 11.0602 36.9022C11.4462 36.7413 11.7965 36.5054 12.0907 36.2081C12.1632 36.1361 12.2127 36.0441 12.2328 35.9439C12.253 35.8437 12.2429 35.7398 12.2039 35.6453C12.1649 35.5508 12.0988 35.47 12.0138 35.4132C11.9288 35.3564 11.8289 35.3261 11.7267 35.3262H6.60569H6.06969C5.71469 35.3262 5.34969 35.3202 4.98769 35.3262C3.76096 35.3445 2.59073 35.8449 1.72996 36.7192C0.869194 37.5934 0.387029 38.7713 0.387693 39.9981C0.288434 41.2384 0.450781 42.4856 0.864217 43.659C1.27765 44.8325 1.93296 45.906 2.78769 46.8101C3.55997 47.576 4.47563 48.1822 5.48234 48.594C6.48904 49.0058 7.56703 49.2152 8.65469 49.2102C9.43369 49.2102 10.2177 49.2102 10.9997 49.2102H13.3267H15.6677H36.3677C37.7885 49.1921 39.181 48.8106 40.4126 48.1021C41.6443 47.3935 42.674 46.3814 43.4037 45.1622C44.095 43.9756 44.4783 42.6348 44.5187 41.2621C44.6186 40.2563 44.5142 39.2406 44.2117 38.2761C43.8614 37.389 43.2476 36.6305 42.453 36.1029C41.6584 35.5753 40.7213 35.3039 39.7677 35.3251" fill="#212121"/>
<path d="M39.7747 35.3251C39.2747 35.3251 38.7747 35.3251 38.2747 35.3251H20.1547C19.7165 35.3237 19.2825 35.4094 18.8777 35.5771C18.4729 35.7448 18.1054 35.9912 17.7967 36.3021C17.7276 36.3711 17.6805 36.459 17.6614 36.5547C17.6423 36.6505 17.6521 36.7497 17.6895 36.8399C17.7269 36.9301 17.7902 37.0072 17.8714 37.0613C17.9526 37.1155 18.0481 37.1443 18.1457 37.1441H34.2767C34.8934 37.1441 35.5114 37.1441 36.1307 37.1441C37.3447 37.1441 38.5997 37.1361 39.8307 37.1441C40.2353 37.1481 40.6347 37.2361 41.0035 37.4026C41.3723 37.5691 41.7024 37.8105 41.9729 38.1114C42.2435 38.4123 42.4485 38.7662 42.575 39.1506C42.7015 39.5349 42.7467 39.9414 42.7077 40.3441C42.7077 43.0671 41.7587 45.0761 39.8867 46.3151C38.8438 47.0076 37.6215 47.3805 36.3697 47.3881H9.7997C9.39069 47.3881 8.98169 47.3881 8.57269 47.3881C7.46136 47.3869 6.36955 47.0959 5.40503 46.5439C4.44051 45.9918 3.63662 45.1978 3.07269 44.2402C2.49216 43.2301 2.19246 42.0831 2.20469 40.9181V40.8311C2.08123 39.8953 2.30461 38.9466 2.83269 38.1641C3.17287 37.7965 3.59391 37.5131 4.06252 37.3362C4.53113 37.1594 5.03445 37.094 5.53269 37.1452H9.84169C10.2599 37.1456 10.6741 37.063 11.0602 36.9022C11.4462 36.7413 11.7965 36.5054 12.0907 36.2081C12.1632 36.1361 12.2127 36.0441 12.2328 35.9439C12.253 35.8437 12.2429 35.7398 12.2039 35.6453C12.1649 35.5508 12.0988 35.47 12.0138 35.4132C11.9288 35.3564 11.8289 35.3261 11.7267 35.3262H6.60569H6.06969C5.71469 35.3262 5.34969 35.3202 4.98769 35.3262C3.76096 35.3445 2.59073 35.8449 1.72996 36.7192C0.869194 37.5934 0.387029 38.7713 0.387693 39.9981C0.288434 41.2384 0.450781 42.4856 0.864217 43.659C1.27765 44.8325 1.93296 45.906 2.78769 46.8101C3.55997 47.576 4.47563 48.1822 5.48234 48.594C6.48904 49.0058 7.56703 49.2152 8.65469 49.2102C9.43369 49.2102 10.2177 49.2102 10.9997 49.2102H13.3267H15.6677H36.3677C37.7885 49.1921 39.181 48.8106 40.4126 48.1021C41.6443 47.3935 42.674 46.3814 43.4037 45.1622C44.095 43.9756 44.4783 42.6348 44.5187 41.2621C44.6186 40.2563 44.5142 39.2406 44.2117 38.2761C43.8618 37.3901 43.2491 36.6325 42.4559 36.105C41.6627 35.5774 40.7271 35.3053 39.7747 35.3251Z" fill="#212121"/>
<path d="M3.82733 33.188C4.28742 33.2656 4.75388 33.2991 5.22034 33.288H5.56534H5.91033H40.1523C40.1903 33.288 40.2263 33.288 40.2523 33.288C40.8897 33.2698 41.5167 33.1221 42.0952 32.8539C42.6737 32.5857 43.1916 32.2026 43.6173 31.728C44.0842 31.1959 44.4398 30.5757 44.6631 29.904C44.8863 29.2323 44.9728 28.5227 44.9173 27.817C44.8455 26.5924 44.3106 25.4409 43.4211 24.5961C42.5316 23.7514 41.354 23.2765 40.1273 23.268C38.8653 23.243 37.5843 23.251 36.3433 23.26C35.7133 23.26 35.0843 23.268 34.4563 23.268H11.0173C10.3343 23.268 9.65234 23.268 8.96934 23.261C7.62534 23.254 6.23533 23.247 4.86933 23.268C3.77735 23.2603 2.71497 23.6227 1.85543 24.2963C0.9959 24.9699 0.389927 25.9148 0.136334 26.977C-0.0258656 27.6953 -0.0435277 28.4387 0.0843754 29.1638C0.212279 29.889 0.483191 30.5815 0.881334 31.201C1.21116 31.7159 1.64284 32.1579 2.14981 32.4997C2.65679 32.8416 3.22835 33.0762 3.82934 33.189L3.82733 33.188ZM32.9613 31.439L39.2613 25.139L39.2863 25.113C39.5463 25.113 39.8393 25.113 40.1303 25.113C40.6025 25.1177 41.0664 25.2369 41.4824 25.4604C41.8983 25.6838 42.2538 26.0049 42.5183 26.396C42.822 26.841 43.0164 27.3514 43.0859 27.8856C43.1554 28.4199 43.098 28.963 42.9183 29.471C42.7138 30.0404 42.34 30.5336 41.8469 30.8844C41.3539 31.2351 40.7654 31.4265 40.1603 31.433L32.9613 31.439ZM20.3863 31.439L26.6863 25.139L26.7083 25.117H36.6293L30.3093 31.437L20.3863 31.439ZM7.81133 31.439L14.1113 25.139L14.1323 25.117H24.0533L17.7333 31.437L7.81133 31.439ZM3.07934 25.673C3.80631 25.2232 4.66232 25.0283 5.51233 25.119H11.4763L5.15333 31.443C4.70552 31.4631 4.25752 31.4074 3.82833 31.278C3.30374 31.0817 2.844 30.7435 2.50038 30.3012C2.15677 29.8589 1.94279 29.3298 1.88233 28.773C1.77922 28.1959 1.83661 27.6016 2.04823 27.0549C2.25984 26.5082 2.61756 26.0302 3.08233 25.673" fill="#212121"/>
<path d="M3.82733 33.188C4.28742 33.2656 4.75388 33.2991 5.22034 33.288H5.56534H5.91033H40.1523C40.1903 33.288 40.2263 33.288 40.2523 33.288C40.8897 33.2698 41.5167 33.1221 42.0952 32.8539C42.6737 32.5857 43.1916 32.2026 43.6173 31.728C44.0842 31.1959 44.4398 30.5757 44.6631 29.904C44.8863 29.2323 44.9728 28.5227 44.9173 27.817C44.8455 26.5924 44.3106 25.4409 43.4211 24.5961C42.5316 23.7514 41.354 23.2765 40.1273 23.268C38.8653 23.243 37.5843 23.251 36.3433 23.26C35.7133 23.26 35.0843 23.268 34.4563 23.268H11.0173C10.3343 23.268 9.65234 23.268 8.96934 23.261C7.62534 23.254 6.23533 23.247 4.86933 23.268C3.77735 23.2603 2.71497 23.6227 1.85543 24.2963C0.9959 24.9699 0.389927 25.9148 0.136334 26.977C-0.0258656 27.6953 -0.0435277 28.4387 0.0843754 29.1638C0.212279 29.889 0.483191 30.5815 0.881334 31.201C1.21104 31.7155 1.64244 32.1571 2.14905 32.4988C2.65567 32.8405 3.22679 33.0751 3.82733 33.188ZM32.9593 31.438L39.2593 25.138L39.2843 25.112C39.5443 25.112 39.8373 25.112 40.1283 25.112C40.6005 25.1167 41.0644 25.2359 41.4804 25.4593C41.8963 25.6828 42.2518 26.0039 42.5163 26.395C42.82 26.84 43.0144 27.3504 43.0839 27.8847C43.1534 28.4189 43.096 28.962 42.9163 29.47C42.7118 30.0394 42.338 30.5326 41.8449 30.8834C41.3519 31.2341 40.7634 31.4255 40.1583 31.432L32.9593 31.438ZM20.3843 31.438L26.6843 25.138L26.7063 25.116H36.6273L30.3073 31.436L20.3843 31.438ZM7.80934 31.438L14.1093 25.138L14.1303 25.116H24.0513L17.7313 31.436L7.80934 31.438ZM3.07733 25.672C3.80431 25.2222 4.66032 25.0273 5.51034 25.118H11.4743L5.15133 31.442C4.70352 31.4621 4.25553 31.4063 3.82633 31.277C3.30174 31.0807 2.842 30.7425 2.49838 30.3002C2.15477 29.8579 1.94079 29.3288 1.88033 28.772C1.77681 28.1949 1.83379 27.6006 2.04505 27.0537C2.25632 26.5068 2.61375 26.0285 3.07833 25.671L3.07733 25.672Z" fill="#212121"/>
</svg>

