<svg id="Group_80" data-name="Group 80" xmlns="http://www.w3.org/2000/svg" width="39.261" height="46.878" viewBox="0 0 39.261 46.878">
  <path id="Path_325" data-name="Path 325" d="M364.1,179.935a22.82,22.82,0,0,1-12.229-3.314,23.171,23.171,0,0,1-8.3-8.552,23.611,23.611,0,0,1-2.544-6.748c-.067-.311.012-.4.3-.452q3.978-.757,7.952-1.534c1.109-.215,2.217-.42,3.322-.652.3-.064.4.033.461.313a11,11,0,0,0,9.055,8.482,10.646,10.646,0,0,0,8.054-1.941.406.406,0,0,1,.593.019q4.631,3.62,9.281,7.217c.23.178.223.271.022.467a23.086,23.086,0,0,1-11.08,6.1A23.51,23.51,0,0,1,364.1,179.935Z" transform="translate(-341 -133.058)" fill="#2d2d2d"/>
  <path id="Path_326" data-name="Path 326" d="M375.39,147.765q-2.014,1.574-4.028,3.148c-.287.223-.542.591-.879.621s-.611-.352-.92-.544a11,11,0,0,0-16.5,6.963c-.077.339-.195.407-.525.339-2.395-.487-4.794-.956-7.192-1.43-1.356-.267-2.711-.539-4.071-.794-.255-.048-.308-.128-.253-.39a23.2,23.2,0,0,1,6.756-12.217,22.407,22.407,0,0,1,10.329-5.736A22.8,22.8,0,0,1,374.6,139.7a22.414,22.414,0,0,1,5.487,4.039c.073.073.31.158.066.317a.268.268,0,0,0-.176.131l-.007.017h-.019c-.32-.013-.441.227-.573.452l0,0a2.246,2.246,0,0,0-1,.777l-.089.08a1.737,1.737,0,0,0-1.176.9.032.032,0,0,1-.038.027.173.173,0,0,0-.155.129c0,.018-.012.025-.03.02a.171.171,0,0,0-.167.126h0c-.3-.017-.512.069-.527.411l-.056.053c-.161.078-.415.035-.418.32l-.011.007-.117.083.009-.012-.078.064h0A.167.167,0,0,0,375.39,147.765Z" transform="translate(-341 -137)" fill="#2d2d2d"/>
  <path id="Path_327" data-name="Path 327" d="M371.552,145.107a1.738,1.738,0,0,1,1.176-.9A12.056,12.056,0,0,1,371.552,145.107Z" transform="translate(-335.44 -135.689)" fill="#2d2d2d"/>
  <path id="Path_328" data-name="Path 328" d="M372.622,144.257a2.246,2.246,0,0,1,1-.777A6.7,6.7,0,0,1,372.622,144.257Z" transform="translate(-335.246 -135.821)" fill="#2d2d2d"/>
  <path id="Path_329" data-name="Path 329" d="M370.775,145.637c.015-.343.232-.428.527-.411A2.048,2.048,0,0,1,370.775,145.637Z" transform="translate(-335.582 -135.504)" fill="#2d2d2d"/>
  <path id="Path_330" data-name="Path 330" d="M373.47,143.548c.132-.225.253-.464.573-.452A2.1,2.1,0,0,1,373.47,143.548Z" transform="translate(-335.091 -135.891)" fill="#2d2d2d"/>
  <path id="Path_331" data-name="Path 331" d="M370.374,145.938c0-.285.258-.242.418-.32A1.729,1.729,0,0,1,370.374,145.938Z" transform="translate(-335.655 -135.432)" fill="#2d2d2d"/>
  <path id="Path_332" data-name="Path 332" d="M373.977,143.1a.268.268,0,0,1,.176-.131A.276.276,0,0,1,373.977,143.1Z" transform="translate(-334.999 -135.914)" fill="#2d2d2d"/>
  <path id="Path_333" data-name="Path 333" d="M371.389,145.12a.173.173,0,0,1,.155-.129A.248.248,0,0,1,371.389,145.12Z" transform="translate(-335.47 -135.546)" fill="#2d2d2d"/>
  <path id="Path_334" data-name="Path 334" d="M371.223,145.243a.171.171,0,0,1,.167-.126A.246.246,0,0,1,371.223,145.243Z" transform="translate(-335.5 -135.523)" fill="#2d2d2d"/>
  <path id="Path_335" data-name="Path 335" d="M370.1,146.126a.167.167,0,0,1,.131-.116A.2.2,0,0,1,370.1,146.126Z" transform="translate(-335.705 -135.361)" fill="#2d2d2d"/>
  <path id="Path_336" data-name="Path 336" d="M370.266,145.978l.117-.083A.135.135,0,0,1,370.266,145.978Z" transform="translate(-335.675 -135.382)" fill="#2d2d2d"/>
  <path id="Path_337" data-name="Path 337" d="M370.208,146.019l.078-.064Z" transform="translate(-335.685 -135.371)" fill="#2d2d2d"/>
</svg>
