<svg  viewBox="0 0 38 41" fill="none" xmlns="http://www.w3.org/2000/svg">
<path d="M18.174 0.0127563C14.6715 -0.107258 11.1977 0.682064 8.09106 2.30383C4.98439 3.9256 2.35084 6.3245 0.446984 9.26675C0.329984 9.45203 0.264909 9.66533 0.258569 9.88437C0.252229 10.1034 0.304855 10.3201 0.410943 10.5119C0.517031 10.7036 0.672685 10.8633 0.861627 10.9743C1.05057 11.0853 1.26585 11.1435 1.48498 11.1428H1.55798C1.76655 11.144 1.97217 11.0934 2.15633 10.9955C2.3405 10.8976 2.49741 10.7554 2.61297 10.5818C4.70935 7.37753 7.78435 4.93586 11.3803 3.62018C14.9763 2.3045 18.9009 2.18514 22.5702 3.27985C26.2394 4.37455 29.4571 6.62481 31.7444 9.69571C34.0316 12.7666 35.2661 16.494 35.2642 20.3231C35.2622 24.1521 34.0238 27.8782 31.7335 30.9468C29.4431 34.0153 26.2231 36.2622 22.5527 37.3532C18.8823 38.4441 14.9577 38.3207 11.3631 37.0013C7.76853 35.682 4.69607 33.2371 2.60299 30.0308C2.49678 29.8647 2.35078 29.7278 2.17825 29.6324C2.00571 29.5371 1.8121 29.4863 1.61498 29.4847H1.56997C1.34002 29.485 1.11444 29.5476 0.91723 29.6659C0.720019 29.7841 0.558547 29.9536 0.450006 30.1563C0.341464 30.3591 0.289925 30.5874 0.300836 30.8171C0.311746 31.0468 0.384719 31.2692 0.511987 31.4608C2.42606 34.3753 5.05821 36.748 8.15505 38.3504C11.2519 39.9528 14.7091 40.731 18.1939 40.61C21.6787 40.489 25.0736 39.473 28.0518 37.6596C31.0301 35.8463 33.4914 33.2968 35.1987 30.2565C36.9061 27.2162 37.802 23.7876 37.8002 20.3008C37.7984 16.8139 36.8989 13.3862 35.1885 10.3477C33.478 7.30922 31.0141 4.76223 28.034 2.95197C25.0538 1.1417 21.6579 0.129141 18.173 0.0117492L18.174 0.0127563Z" fill="#212121"/>
<path d="M4.41605 19.2378H17.465C17.6721 19.2304 17.8793 19.2338 18.086 19.2478C18.4019 19.2676 18.6982 19.4075 18.9142 19.6388C19.1302 19.8702 19.2495 20.1754 19.2476 20.4919C19.2456 20.8084 19.1227 21.1121 18.9039 21.3408C18.6851 21.5695 18.3871 21.7059 18.0711 21.7218C17.8841 21.7398 17.694 21.7298 17.5061 21.7298H4.29704C4.49704 21.9468 4.61504 22.0838 4.74104 22.2088C5.97004 23.4338 7.20206 24.6548 8.42606 25.8838C8.57559 25.9926 8.69922 26.133 8.78819 26.2951C8.87715 26.4572 8.92922 26.637 8.94068 26.8216C8.95214 27.0061 8.92272 27.1909 8.8545 27.3628C8.78628 27.5347 8.68097 27.6893 8.54606 27.8158C8.41226 27.9368 8.25463 28.0285 8.08329 28.0849C7.91195 28.1413 7.7307 28.1613 7.55119 28.1435C7.37167 28.1257 7.19788 28.0705 7.04096 27.9815C6.88405 27.8926 6.74748 27.7717 6.64005 27.6268C4.59739 25.5901 2.55739 23.5501 0.520058 21.5068C0.361512 21.392 0.231935 21.2419 0.141671 21.0682C0.051406 20.8946 0.00294652 20.7023 0.000130164 20.5066C-0.00268619 20.3109 0.0402359 20.1173 0.125466 19.9411C0.210696 19.7649 0.335857 19.6111 0.491036 19.4918C2.54004 17.4328 4.58406 15.3708 6.66306 13.3428C6.98027 13.0604 7.37854 12.8855 7.80106 12.8428C8.04091 12.8336 8.27672 12.9063 8.46973 13.049C8.66275 13.1917 8.80146 13.3958 8.86304 13.6278C8.95481 13.8581 8.97255 14.1113 8.91376 14.3522C8.85498 14.5931 8.7226 14.8096 8.53504 14.9718C7.29371 16.2098 6.05105 17.4471 4.80705 18.6838C4.65356 18.8224 4.49267 18.9526 4.32505 19.0738L4.41605 19.2378Z" fill="#212121"/>
<path d="M21.7401 19.2378H23.2791L24.0481 20.4688L23.2791 21.6998H21.7401L20.9701 20.4688L21.7401 19.2378Z" fill="#212121"/>
</svg>
