<svg xmlns="http://www.w3.org/2000/svg" width="46.443" height="40.65" viewBox="0 0 46.443 40.65">
  <path id="Path_182" data-name="Path 182" d="M189.6,251.39c.034-.1.073-.2.1-.308a41.019,41.019,0,0,1,2.587-6.89,18.55,18.55,0,0,1,2.84-4.34,8.143,8.143,0,0,1,2.406-1.894,4.677,4.677,0,0,1,5.067.442,11.15,11.15,0,0,1,2.89,3.176,30.16,30.16,0,0,1,3.094,6.619,63.348,63.348,0,0,1,2.677,10.868q.534,3.365.905,6.757c.207,1.879.339,3.77.433,5.659.1,2.1.125,4.2.19,6.3.007.22-.056.281-.277.28q-2.6-.012-5.207,0c-.232,0-.271-.078-.273-.286-.027-2.1-.031-4.2-.109-6.3-.089-2.369-.212-4.737-.384-7.1-.156-2.117-.37-4.23-.613-6.338a78.837,78.837,0,0,0-1.66-9.628,26.671,26.671,0,0,0-1.827-5.461,10.283,10.283,0,0,0-.966-1.585,3.756,3.756,0,0,0-.9-.837,1.494,1.494,0,0,0-1.609-.058,3.341,3.341,0,0,0-1.131,1.007,12.643,12.643,0,0,0-1.749,3.482,42.481,42.481,0,0,0-1.814,7.157c-.321,1.872-.6,3.752-.847,5.634-.175,1.307-.3,2.623-.4,3.938-.168,2.332-.326,4.665-.431,7-.09,2.027-.1,4.056-.143,6.085,0,.111,0,.222,0,.355h-5.737c0-.077-.013-.161-.015-.245-.034-1.917-.04-3.835-.111-5.753-.069-1.876-.183-3.75-.317-5.623-.117-1.633-.259-3.266-.443-4.893a73.622,73.622,0,0,0-2.045-11.369,21,21,0,0,0-1.675-4.481,15.749,15.749,0,0,0-1.068-1.6,2.24,2.24,0,0,0-.467-.441,1.711,1.711,0,0,0-2.383.07,6.2,6.2,0,0,0-1.4,1.973A25.775,25.775,0,0,0,174.979,248a64.072,64.072,0,0,0-1.395,7.326c-.265,2.011-.52,4.022-.712,6.039-.2,2.154-.345,4.313-.481,6.471-.209,3.3-.285,6.614-.278,9.925,0,.248-.071.3-.309.3q-2.59-.016-5.182,0c-.208,0-.273-.052-.268-.266.039-1.639.032-3.28.106-4.917.09-1.954.209-3.909.382-5.857a93.8,93.8,0,0,1,1.714-11.551,54.668,54.668,0,0,1,3-9.864,21.322,21.322,0,0,1,2.989-5.25,11.733,11.733,0,0,1,1.671-1.694,4.836,4.836,0,0,1,6.342-.129,11.771,11.771,0,0,1,2.824,3.081,29.039,29.039,0,0,1,3.152,6.617c.33.946.61,1.907.914,2.862.032.1.07.2.105.3Z" transform="translate(-166.355 -237.41)" fill="#2d2d2d"/>
</svg>
