<svg xmlns="http://www.w3.org/2000/svg" width="76.869" height="74.138" viewBox="0 0 76.869 74.138">
  <g id="Group_876" data-name="Group 876" transform="translate(0 0)">
    <path id="Path_549" data-name="Path 549" d="M339.595,240.951a1.219,1.219,0,0,0,.575.149,1.013,1.013,0,0,0,.916-.576,2.881,2.881,0,0,1,1.99-1.51,2.652,2.652,0,0,1,2.24.648,1.138,1.138,0,0,0,1.145.224,1.263,1.263,0,0,0,.821-.912.988.988,0,0,0-.363-.956,5.2,5.2,0,0,0-4.338-1.229,4.935,4.935,0,0,0-3.484,2.588,1.133,1.133,0,0,0,.5,1.575" transform="translate(-326.708 -226.402)" fill="#212121"/>
    <path id="Path_550" data-name="Path 550" d="M382.08,238.708a1.132,1.132,0,0,0,1.156.061,2.672,2.672,0,0,1,2.356-.077,2.839,2.839,0,0,1,1.537,1.935,1.033,1.033,0,0,0,.724.784,1.163,1.163,0,0,0,.317.044,1.291,1.291,0,0,0,.88-.349,1.094,1.094,0,0,0,.3-1.079,4.982,4.982,0,0,0-2.735-3.371,5.181,5.181,0,0,0-4.511.119,1,1,0,0,0-.589.845,1.266,1.266,0,0,0,.57,1.089" transform="translate(-347.565 -226.152)" fill="#212121"/>
    <path id="Path_551" data-name="Path 551" d="M391.422,233.052a3.331,3.331,0,0,0-3.06-1.677c-1.264-.026-2.548-.018-3.79-.009-.631,0-1.261.009-1.891.009h-2.07c0-.02.006-.039.006-.06v-6.768l3.408,3.407A1.381,1.381,0,0,0,385.978,226l-5.766-5.766c-.019-.02-.043-.034-.064-.052a1.358,1.358,0,0,0-1.648-.135l-.034.018c-.008.005-.014.012-.022.018a1.234,1.234,0,0,0-.186.15,1.374,1.374,0,0,0-.4.985v10.094c0,.02.005.039.006.06H362.939c-.311,0-.624-.005-.935-.009-.032-.022-.063-.045-.1-.067a7.166,7.166,0,0,0-4.492-8.429,7.039,7.039,0,0,0-12.47-3.778A7.136,7.136,0,0,0,336.4,220a8.117,8.117,0,0,0-12.858,5.6,7.124,7.124,0,0,0-5.282,10.141,7.214,7.214,0,0,0-.725,1.328,3.636,3.636,0,0,0-2.559,3.98c.033.291.083.581.133.87l6.8,42.5c.045.28.083.573.121.869.217,1.669.462,3.559,2.1,4.5a4.628,4.628,0,0,0,2.414.482H355.6c2.932-.21,3.446-2.4,3.84-4.6a3.942,3.942,0,0,0,1.172,1.342,3.191,3.191,0,0,0,.674,2.538,3.5,3.5,0,0,0,2.992,1.091c.159,0,.318,0,.476,0s.309,0,.462,0h17.648a1.112,1.112,0,0,0,.271-.033,2.963,2.963,0,0,0,2.644-2.719,4.3,4.3,0,0,0-.013-.905,4.273,4.273,0,0,0,1.612-3.116c.017-.221.023-.444.031-.666l1.825-43.021a8.894,8.894,0,0,0-.132-2.5,3.519,3.519,0,0,0,2.4-1.823,2.948,2.948,0,0,0-.082-2.793m-27.754,54.7h19.549c.1-.006.188-.017.281-.028a.81.81,0,0,1-.107.216.713.713,0,0,1-.528.287H364.527c-.579,0-1.225.005-1.517-.312a.593.593,0,0,1-.119-.213,6.584,6.584,0,0,0,.778.049m19.538-2.261H364.272c-.126,0-.257,0-.388.006a3.284,3.284,0,0,1-1.835-.3c-.958-.6-.963-1.9-.968-3.039,0-.226,0-.445-.01-.65l-.167-4.236,6.13-34.516.1-.525c.067-.363.135-.726.191-1.091a3.846,3.846,0,0,0-.785-3.067,3.544,3.544,0,0,0-.4-.4l1.343-.017c1.591-.023,3.236-.047,4.847-.047h13.632a1.309,1.309,0,0,1,.786.3,1.112,1.112,0,0,1,.277.841c-.009,2.754-.165,5.566-.316,8.285-.077,1.383-.154,2.766-.212,4.145L385.655,271c-.059,1.381-.1,2.765-.148,4.15-.087,2.72-.178,5.531-.379,8.282a2,2,0,0,1-1.921,2.054m-60.066-8.447,13.134-13.135a1.149,1.149,0,0,0-.007-1.62,1.131,1.131,0,0,0-.805-.338,1.147,1.147,0,0,0-.812.334l-12.028,12.029-2.857-17.878,17.395-17.4H357.9l-16.355,16.356a1.132,1.132,0,0,0-.333.805,1.152,1.152,0,0,0,1.957.818l17.744-17.743a1.163,1.163,0,0,0,.182-.236h.66c.163,0,.339,0,.52-.009.9-.024,2.01-.053,2.517.491a1.416,1.416,0,0,1,.292,1.154,32.834,32.834,0,0,1-.591,3.513c-.121.587-.241,1.172-.344,1.752l-2.239,12.6a1.285,1.285,0,0,0-.145.124l-29.168,29.169h-4.9c-.193,0-.39.007-.589.013a8.472,8.472,0,0,1-1.157-.012c-.991-.106-1.282-.737-1.45-1.792l-1.428-8.934c.024-.019.047-.041.071-.064m-2.655-41.9a5.006,5.006,0,0,1-.178-5.053,4.9,4.9,0,0,1,4.241-2.557,1.109,1.109,0,0,0,1.082-1.083,6.045,6.045,0,0,1,10.124-4.344,1.255,1.255,0,0,0,.9.307.89.89,0,0,0,.644-.329,5.243,5.243,0,0,1,3.547-1.983,4.873,4.873,0,0,1,3.605,1.114,1.209,1.209,0,0,0,.961.278,1.06,1.06,0,0,0,.731-.507,4.988,4.988,0,0,1,6.012-2.145,4.9,4.9,0,0,1,3.119,4.69,1.091,1.091,0,0,0,.8,1.055,4.982,4.982,0,0,1,3.286,2.5,5.133,5.133,0,0,1,.211,4.251.906.906,0,0,0,.244,1.06,1.134,1.134,0,0,0,.257.189,6.293,6.293,0,0,1,3.243,4.133c-3.253-.131-6.566-.085-9.777-.037-1.674.026-3.4.052-5.1.052H324.064c-.6,0-1.2-.007-1.807-.014-.7-.008-1.421-.012-2.141-.009.067-.088.135-.176.209-.26a1.11,1.11,0,0,0,.16-1.312m65.686.195c-.217-.007-.434-.007-.648,0-.116,0-.23,0-.343,0H365.173a8.194,8.194,0,0,0-.923-1.848h21.629c.257,0,.513,0,.77,0,.51-.005,1.021-.011,1.531,0,.057,0,.115,0,.175,0a1.318,1.318,0,0,1,.225,0,1.039,1.039,0,0,1,.928,1.042.856.856,0,0,1-.887.809Zm-66.112,3.687c.181,0,.356.009.519.009h13.334l-14.595,14.6-1.231-7.7c-.092-.581-.2-1.166-.311-1.753a35.086,35.086,0,0,1-.531-3.513,1.423,1.423,0,0,1,.3-1.151c.51-.54,1.622-.51,2.51-.489m41.15,23.433-4.184,23.559c-.168.946-.393,1.736-1.441,1.811H335.84Z" transform="translate(-314.947 -216.499)" fill="#212121"/>
    <path id="Path_552" data-name="Path 552" d="M446.639,289.872v12.283a1.131,1.131,0,0,0,2.261,0V289.872a1.132,1.132,0,0,0-2.261,0" transform="translate(-379.482 -251.925)" fill="#212121"/>
    <path id="Path_553" data-name="Path 553" d="M446.575,278.192l-.78,1.351.78,1.352h1.562l.78-1.352-.78-1.351Z" transform="translate(-379.069 -246.731)" fill="#212121"/>
    <path id="Path_554" data-name="Path 554" d="M361.153,300.728l.745-1.291-.745-1.291h-1.492l-.745,1.291.745,1.291Z" transform="translate(-336.494 -256.51)" fill="#212121"/>
  </g>
</svg>
