<svg id="Group_1117" data-name="Group 1117" xmlns="http://www.w3.org/2000/svg" width="38.427" height="43.123" viewBox="0 0 38.427 43.123">
  <path id="Path_1030" data-name="Path 1030" d="M334.615,87.85c-.528.087-.885-.3-1.281-.571Q330.98,85.651,328.64,84q-1.988-1.395-3.968-2.8a1.236,1.236,0,0,1-.468-.994,2.552,2.552,0,0,1,1.544-2.393,1.326,1.326,0,0,1,1.045.063c3.207,1.5,6.4,3.014,9.632,4.467a2.006,2.006,0,0,1,1.215,2.282,3.854,3.854,0,0,1-1.992,2.973A1.758,1.758,0,0,1,334.615,87.85Z" transform="translate(-299.242 -53.798)" fill="currentColor"/>
  <path id="Path_1031" data-name="Path 1031" d="M288.014,80.223a1.222,1.222,0,0,1-.608,1.117q-4.417,3.094-8.83,6.193a1.943,1.943,0,0,1-2.458-.2,3.8,3.8,0,0,1-1.555-3.276,1.721,1.721,0,0,1,1.061-1.606c1.409-.641,2.809-1.3,4.213-1.953,1.776-.824,3.568-1.616,5.321-2.485a1.669,1.669,0,0,1,2.264.532A2.734,2.734,0,0,1,288.014,80.223Z" transform="translate(-274.553 -53.819)" fill="currentColor"/>
  <path id="Path_1032" data-name="Path 1032" d="M288.018,55.862a2.609,2.609,0,0,1-1.439,2.253,1.21,1.21,0,0,1-1.073.013q-4.067-1.886-8.128-3.783c-.6-.278-1.191-.569-1.8-.832a1.67,1.67,0,0,1-1.021-1.506,3.868,3.868,0,0,1,2.106-3.684,1.769,1.769,0,0,1,1.9.14c1.311.934,2.63,1.855,3.948,2.779q2.443,1.711,4.888,3.419A1.279,1.279,0,0,1,288.018,55.862Z" transform="translate(-274.547 -39.062)" fill="currentColor"/>
  <path id="Path_1033" data-name="Path 1033" d="M310.123,30.108a3.212,3.212,0,0,1,2.177.9,1.573,1.573,0,0,1,.482,1.357c-.116,1.073-.18,2.151-.274,3.226-.149,1.692-.31,3.382-.46,5.073-.072.807-.157,1.613-.193,2.421a1.388,1.388,0,0,1-.952,1.325,2.489,2.489,0,0,1-2.579-.3,1.033,1.033,0,0,1-.42-.733c-.128-1.373-.246-2.747-.369-4.12-.135-1.5-.273-3-.408-4.508-.068-.756-.113-1.515-.2-2.27a1.905,1.905,0,0,1,1.3-2.036A4.027,4.027,0,0,1,310.123,30.108Z" transform="translate(-290.646 -30.108)" fill="currentColor"/>
  <path id="Path_1034" data-name="Path 1034" d="M306.945,99.159c.122-1.325.262-2.827.4-4.33.092-1.035.175-2.071.265-3.106.1-1.165.194-2.33.315-3.493a1.266,1.266,0,0,1,.885-1.014,2.539,2.539,0,0,1,2.311.1,1.284,1.284,0,0,1,.73,1.061c.1,1.265.213,2.529.326,3.793.11,1.233.231,2.466.337,3.7s.226,2.469.292,3.706a1.5,1.5,0,0,1-.743,1.271,3.878,3.878,0,0,1-4.4-.016A1.751,1.751,0,0,1,306.945,99.159Z" transform="translate(-290.66 -58.398)" fill="currentColor"/>
  <path id="Path_1035" data-name="Path 1035" d="M324.236,55.891a1.455,1.455,0,0,1,.788-1.35c1.757-1.218,3.5-2.451,5.254-3.677q1.8-1.262,3.613-2.519a1.366,1.366,0,0,1,1.205-.162,3.378,3.378,0,0,1,2.157,1.9,3.267,3.267,0,0,1,.361,2.146,1.619,1.619,0,0,1-.924,1.244q-2.857,1.322-5.713,2.649c-1.376.641-2.754,1.279-4.121,1.939a1.391,1.391,0,0,1-1.568-.179A2.565,2.565,0,0,1,324.236,55.891Z" transform="translate(-299.259 -39.064)" fill="currentColor"/>
</svg>
