<svg  viewBox="0 0 99 87" fill="none" xmlns="http://www.w3.org/2000/svg">
<path d="M91.3611 81.3947L89.4491 81.4947V85.1947H61.205V81.5067L58.9231 81.3917L58.3981 76.6037L60.2531 76.3517C60.3023 77.1221 60.4083 77.8879 60.5701 78.6427C60.6611 78.9707 61.1231 79.4307 61.4181 79.4317C70.6901 79.4657 79.9621 79.4507 89.2341 79.4407C89.3741 79.4113 89.511 79.3688 89.6431 79.3137L90.8161 69.0027H59.6051V70.5527L57.7431 70.8617C56.3571 58.5437 54.982 46.3287 53.597 34.0147L51.748 33.8827V24.5457H56.1481V19.0457H94.0881V24.4977H98.5521V33.8867L96.688 33.9867C94.917 49.7527 93.1451 65.5237 91.3611 81.3947ZM59.2281 66.9147H60.5721C70.2721 66.9147 79.9721 66.8957 89.6721 66.9407C90.7811 66.9457 91.1391 66.6407 91.2491 65.5287C91.7201 60.7847 92.3021 56.0517 92.8311 51.3127C93.0511 49.3347 93.2381 47.3517 93.4451 45.3327H56.8051C57.6151 52.5337 58.4131 59.6507 59.2281 66.9147ZM93.7281 43.2657L94.7281 34.0127H55.5581L56.5581 43.2657H93.7281ZM53.6051 31.9517H96.6431V26.4687H86.821V24.5187H92.0981V20.9807H58.162V24.5637H84.7681V26.5587H53.6051V31.9517ZM87.3921 83.2667V81.5237H63.261V83.2687L87.3921 83.2667Z" fill="#FCFAF2"/>
<path d="M58.178 74.6867L57.968 72.7867L59.868 72.5297L60.068 74.3907L58.178 74.6867Z" fill="#FCFAF2"/>
<path d="M81.862 54.1237C81.8582 56.0224 81.2882 57.8769 80.2247 59.4499C79.1612 61.0228 77.6526 62.2427 75.892 62.9537C75.161 63.2629 74.3681 63.3981 73.576 63.3484C72.7838 63.2987 72.014 63.0656 71.3274 62.6674C70.6408 62.2692 70.0561 61.7168 69.6196 61.0539C69.1831 60.391 68.9066 59.6358 68.812 58.8477C68.059 55.0417 70.836 50.1297 74.494 48.7987C78.535 47.3237 81.77 49.6617 81.862 54.1237ZM77.454 50.1787C76.2023 50.2114 74.9851 50.5959 73.9417 51.2881C72.8983 51.9802 72.0708 52.9522 71.554 54.0927C70.56 56.0697 70.129 58.1137 71.525 60.3587L77.454 50.1787ZM73.231 61.4096C74.441 61.4053 75.6247 61.0557 76.6429 60.4018C77.6611 59.748 78.4715 58.8172 78.979 57.7187C80.073 55.6877 80.529 53.5566 79.049 51.3106L73.231 61.4096Z" fill="#FCFAF2"/>
<path d="M28.862 54.1237C28.8582 56.0224 28.2882 57.8769 27.2247 59.4499C26.1612 61.0228 24.6526 62.2427 22.892 62.9537C22.161 63.2629 21.3681 63.3981 20.576 63.3484C19.7838 63.2987 19.014 63.0656 18.3274 62.6674C17.6408 62.2692 17.0561 61.7168 16.6196 61.0539C16.1831 60.391 15.9066 59.6358 15.812 58.8477C15.059 55.0417 17.836 50.1297 21.494 48.7987C25.535 47.3237 28.77 49.6617 28.862 54.1237ZM24.454 50.1787C23.2023 50.2114 21.9851 50.5959 20.9417 51.2881C19.8983 51.9802 19.0708 52.9522 18.554 54.0927C17.56 56.0697 17.129 58.1137 18.525 60.3587L24.454 50.1787ZM20.231 61.4096C21.441 61.4053 22.6247 61.0557 23.6429 60.4018C24.6611 59.748 25.4715 58.8172 25.979 57.7187C27.073 55.6877 27.529 53.5566 26.049 51.3106L20.231 61.4096Z" fill="#FCFAF2"/>
<path d="M57.7609 28.5307V30.3097H55.9609V28.5307H57.7609Z" fill="#FCFAF2"/>
<path d="M59.7739 30.2987V28.5447H61.5589V30.2987H59.7739Z" fill="#FCFAF2"/>
<path d="M65.3759 30.3377H63.6379V28.5457H65.3759V30.3377Z" fill="#FCFAF2"/>
<path d="M3.48404 41.0017C0.571039 40.6327 0.561035 40.6217 0.561035 37.8547C0.561035 36.0134 0.561035 34.1721 0.561035 32.3307C0.561035 29.5657 0.561039 29.5657 3.23404 29.1397C3.77304 18.0657 9.28603 11.2727 20.569 9.20071V4.27475C20.569 3.71175 20.551 3.1487 20.575 2.5867C20.618 1.5867 20.892 0.686748 22.109 0.714748C23.227 0.741748 23.517 1.60072 23.534 2.53872C23.563 4.22672 23.544 5.91475 23.544 7.60275C23.544 8.10975 23.544 8.61669 23.544 9.19369C34.714 11.1797 40.322 17.9527 40.874 29.1037C43.551 29.6347 43.551 29.6347 43.552 32.4367V37.9607C43.552 40.5797 43.452 40.6837 40.663 40.9757C40.525 42.8457 40.363 44.7567 40.246 46.6697C39.484 58.7657 38.7274 70.8617 37.976 82.9577C37.745 86.6657 37.754 86.6657 34.123 86.6657C25.6343 86.6657 17.145 86.6657 8.65503 86.6657C6.65503 86.6657 6.41604 86.4957 6.28604 84.5337C5.59004 74.0224 4.91136 63.5104 4.25003 52.9977C3.99603 49.0237 3.74304 45.0447 3.48404 41.0017ZM35.484 76.5767C36.229 64.6147 36.966 52.8057 37.703 40.9767H6.40503C7.30503 55.3197 8.19704 69.5367 9.08804 83.7437H35.041L35.276 79.5497H25.527C24.504 79.5497 23.48 79.5687 22.457 79.5397C21.484 79.5117 20.664 79.0937 20.679 78.0397C20.694 76.9857 21.523 76.6057 22.495 76.5767C23.108 76.5587 23.723 76.5707 24.337 76.5707C28.005 76.5757 31.678 76.5767 35.487 76.5767H35.484ZM3.47003 37.7897H40.637V32.3517H3.47302L3.47003 37.7897ZM22.042 29.2817C24.806 29.2817 27.569 29.2637 30.332 29.2907C31.303 29.3007 32.005 28.9217 32.032 27.9527C32.065 26.8897 31.332 26.4527 30.302 26.4737C29.5411 26.5703 28.77 26.5535 28.014 26.4237C27.4027 26.1196 26.8475 25.7138 26.372 25.2237C26.807 24.7037 27.225 24.1687 27.68 23.6667C28.135 23.1647 28.994 22.7137 29.065 22.1667C29.221 20.9537 28.192 20.7117 27.205 20.7067C23.879 20.6917 20.553 20.7067 17.226 20.6997C16.28 20.6997 15.255 20.6997 15.01 21.8517C14.739 23.1257 15.681 23.4177 16.687 23.7657C16.9538 23.9051 17.1813 24.109 17.3488 24.359C17.5163 24.609 17.6185 24.8971 17.646 25.1967C17.602 25.6537 16.929 26.2577 16.415 26.4127C15.6612 26.5549 14.8895 26.5762 14.129 26.4757C13.048 26.4377 12.054 26.6577 12.071 27.9377C12.086 29.1197 13.027 29.3137 14.057 29.3007C16.723 29.2607 19.384 29.2827 22.045 29.2817H22.042ZM9.14203 29.2117C9.21103 26.0437 9.59703 25.3457 12.155 23.6887C11.655 19.8017 13.387 17.8747 17.382 17.8707H20.482V12.4307C11.794 12.6677 5.10803 21.8737 6.58203 29.2117H9.14203ZM23.659 12.3897V17.8747C25.101 17.8747 26.424 17.8397 27.744 17.8827C28.7515 17.8523 29.7351 18.193 30.5079 18.8401C31.2807 19.4872 31.7889 20.3956 31.936 21.3927C32.017 22.1977 32.0247 23.0084 31.959 23.8147C34.386 24.8147 35.128 26.7797 34.916 29.2067H37.579C38.805 21.3367 32.118 12.7857 23.665 12.3897H23.659Z" fill="#FCFAF2"/>
<path d="M14.614 79.5187C13.724 79.4407 12.093 79.8497 12.114 78.0187C12.136 76.3277 13.683 76.6467 14.82 76.6007C15.2278 76.5829 15.6364 76.5855 16.044 76.6087C16.954 76.6607 17.689 77.0267 17.712 78.0287C17.735 79.0307 17.027 79.4387 16.112 79.5107C15.705 79.5447 15.297 79.5187 14.614 79.5187Z" fill="#FCFAF2"/>
</svg>
