<svg  viewBox="0 0 105 88" fill="none" xmlns="http://www.w3.org/2000/svg">
<path d="M2.923 40.2877C0.010004 39.9187 0 39.9076 0 37.1407C0 35.2993 0 33.458 0 31.6166C0 28.8516 4.05312e-06 28.8516 2.673 28.4256C3.212 17.3516 8.725 10.5586 20.008 8.48663V3.56063C20.008 2.99763 19.99 2.43465 20.014 1.87265C20.057 0.872646 20.331 -0.0273635 21.548 0.000636486C22.666 0.0276365 22.956 0.886642 22.973 1.82464C23.002 3.51264 22.983 5.20064 22.983 6.88864C22.983 7.39564 22.983 7.90264 22.983 8.47964C34.153 10.4656 39.761 17.2386 40.313 28.3896C42.99 28.9206 42.99 28.9207 42.991 31.7227V37.2466C42.991 39.8656 42.891 39.9697 40.102 40.2617C39.964 42.1317 39.802 44.0427 39.685 45.9557C38.923 58.0517 38.1663 70.1476 37.415 82.2436C37.184 85.9516 37.193 85.9516 33.562 85.9516C25.0733 85.9516 16.584 85.9516 8.094 85.9516C6.094 85.9516 5.855 85.7816 5.725 83.8196C5.029 73.309 4.35034 62.797 3.689 52.2836C3.435 48.3096 3.182 44.3307 2.923 40.2877ZM34.923 75.8626C35.668 63.9006 36.405 52.0916 37.142 40.2626H5.844C6.744 54.6056 7.636 68.8226 8.527 83.0296H34.48L34.715 78.8356H24.966C23.943 78.8356 22.919 78.8546 21.896 78.8256C20.923 78.7976 20.103 78.3796 20.118 77.3256C20.133 76.2716 20.962 75.8916 21.934 75.8626C22.547 75.8446 23.162 75.8566 23.776 75.8566C27.444 75.8616 31.117 75.8626 34.926 75.8626H34.923ZM2.912 37.0756H40.079V31.6376H2.912V37.0756ZM21.484 28.5677C24.248 28.5677 27.011 28.5496 29.774 28.5766C30.745 28.5866 31.447 28.2076 31.474 27.2386C31.507 26.1756 30.774 25.7386 29.744 25.7596C28.9831 25.8562 28.212 25.8394 27.456 25.7097C26.8447 25.4055 26.2894 24.9997 25.814 24.5096C26.249 23.9896 26.667 23.4546 27.122 22.9526C27.577 22.4506 28.436 21.9996 28.507 21.4526C28.663 20.2396 27.634 19.9976 26.647 19.9926C23.321 19.9776 19.995 19.9927 16.668 19.9857C15.722 19.9857 14.697 19.9856 14.452 21.1376C14.181 22.4116 15.123 22.7036 16.129 23.0516C16.3957 23.191 16.6233 23.395 16.7908 23.645C16.9583 23.895 17.0605 24.183 17.088 24.4826C17.044 24.9396 16.371 25.5436 15.857 25.6986C15.1032 25.8408 14.3315 25.8621 13.571 25.7617C12.49 25.7237 11.496 25.9436 11.513 27.2236C11.528 28.4056 12.469 28.5996 13.499 28.5866C16.162 28.5466 18.823 28.5687 21.484 28.5677ZM8.584 28.4976C8.653 25.3296 9.039 24.6316 11.597 22.9746C11.097 19.0876 12.829 17.1606 16.824 17.1566C17.832 17.1566 18.841 17.1566 19.924 17.1566V11.7166C11.236 11.9536 4.55 21.1596 6.024 28.4976H8.584ZM23.101 11.6756V17.1606C24.543 17.1606 25.866 17.1256 27.186 17.1686C28.1935 17.1382 29.177 17.4789 29.9499 18.126C30.7227 18.7731 31.2309 19.6815 31.378 20.6786C31.4589 21.4836 31.4666 22.2943 31.401 23.1006C33.828 24.1006 34.57 26.0656 34.358 28.4926H37.021C38.244 20.6226 31.557 12.0716 23.104 11.6756H23.101Z" fill="#FCFAF2"/>
<path d="M14.0531 78.8096C13.1631 78.7316 11.5321 79.1406 11.5531 77.3096C11.5751 75.6186 13.1221 75.9376 14.2591 75.8916C14.6669 75.8738 15.0754 75.8765 15.4831 75.8996C16.3931 75.9516 17.1281 76.3176 17.1511 77.3196C17.1741 78.3216 16.4661 78.7296 15.5511 78.8016C15.1441 78.8306 14.7361 78.8096 14.0531 78.8096Z" fill="#FCFAF2"/>
<path d="M103.42 56.1756C104.157 56.7245 104.668 57.5231 104.859 58.4219C105.049 59.3207 104.906 60.2581 104.455 61.0587C104.416 61.1584 104.397 61.2649 104.399 61.372C104.402 61.479 104.425 61.5846 104.468 61.6827C104.863 62.526 105.01 63.4643 104.892 64.388C104.774 65.3117 104.395 66.1828 103.801 66.8997C105.418 70.0557 105.338 71.5786 103.401 74.0856C105.686 76.0426 105.075 78.4406 104.239 80.7676C103.501 82.6458 102.218 84.2608 100.557 85.4058C98.8947 86.5508 96.9289 87.1737 94.911 87.1946C83.535 87.0877 72.157 87.1556 60.779 87.1546C55.59 87.1546 50.838 82.1047 51.29 76.9287C51.5592 75.8499 51.9782 74.8141 52.5349 73.8517C52.1384 73.2297 51.7952 72.5754 51.5089 71.8956C51.245 71.171 51.1595 70.3934 51.2598 69.6287C51.36 68.864 51.6431 68.1348 52.085 67.5027C52.214 67.3504 52.2848 67.1572 52.2848 66.9576C52.2848 66.758 52.214 66.5649 52.085 66.4127C51.615 65.741 51.3295 64.9578 51.2572 64.1412C51.1849 63.3247 51.3283 62.5034 51.6729 61.7597C51.7775 61.5387 51.7936 61.2861 51.7179 61.0537C50.7689 59.1317 51.278 57.5377 52.818 56.1237C50.351 53.4347 51.151 50.3497 51.932 47.4027C52.9703 43.4434 55.2913 39.9397 58.5321 37.4395C61.7729 34.9392 65.7508 33.5833 69.844 33.5837C75.721 33.4607 81.6069 33.4627 87.4809 33.6567C96.1609 33.9437 103.831 41.2817 104.772 49.9327C105.105 51.4373 104.998 53.006 104.464 54.4516C104.145 55.0435 103.797 55.6189 103.42 56.1756ZM78.044 55.5097C85.166 55.5097 92.2886 55.5097 99.4119 55.5097C99.8683 55.5461 100.327 55.4832 100.757 55.3254C101.187 55.1676 101.577 54.9186 101.901 54.5955C102.226 54.2724 102.476 53.8829 102.636 53.4538C102.795 53.0247 102.86 52.5661 102.825 52.1097C102.811 51.3762 102.753 50.6442 102.652 49.9176C101.741 42.4886 95.103 36.0857 87.626 35.7917C81.535 35.5517 75.426 35.5187 69.331 35.7267C65.1015 35.8634 61.0859 37.6186 58.1127 40.6298C55.1396 43.6411 53.4358 47.6788 53.353 51.9096C53.344 54.2426 54.61 55.5097 56.959 55.5097C63.9856 55.5097 71.014 55.5097 78.044 55.5097ZM78.044 85.1326C83.636 85.1326 89.228 85.1466 94.82 85.1326C96.7889 85.1405 98.6915 84.4213 100.163 83.1129C101.634 81.8045 102.571 79.999 102.793 78.0426C103.015 76.2216 102.44 75.5626 100.593 75.5606C96.3429 75.5546 92.0929 75.5546 87.8429 75.5606C87.5249 75.5606 87.133 75.6387 86.907 75.4857C86.581 75.2637 86.181 74.8686 86.173 74.5386C86.2141 74.3374 86.2966 74.147 86.4152 73.9793C86.5338 73.8117 86.6859 73.6704 86.862 73.5646C87.1882 73.4367 87.5424 73.3967 87.889 73.4486C90.478 73.4406 93.066 73.4486 95.654 73.4436C97.06 73.4436 98.4699 73.4987 99.8709 73.4207C100.4 73.3969 100.914 73.238 101.364 72.9591C101.814 72.6803 102.186 72.2907 102.443 71.8277C102.699 71.3646 102.833 70.8435 102.832 70.3139C102.83 69.7844 102.693 69.2641 102.433 68.8027C102.401 68.7063 102.35 68.6177 102.282 68.5424C102.214 68.4671 102.131 68.4069 102.039 68.3655C101.946 68.3242 101.846 68.3027 101.744 68.3023C101.643 68.302 101.543 68.3229 101.45 68.3637C100.787 68.5531 100.091 68.5937 99.4105 68.4826C98.7302 68.3714 98.0829 68.1112 97.515 67.7206C97.0239 67.3852 96.4424 67.2072 95.8478 67.2102C95.2532 67.2132 94.6735 67.3972 94.186 67.7376C93.3973 68.2675 92.4692 68.5513 91.5191 68.5533C90.5691 68.5552 89.6398 68.2752 88.849 67.7487C88.3455 67.4048 87.7497 67.2216 87.1401 67.2232C86.5304 67.2248 85.9356 67.4112 85.434 67.7576C84.6555 68.2728 83.7435 68.5493 82.8101 68.553C81.8767 68.5567 80.9625 68.2876 80.18 67.7787C79.5608 67.3761 78.8384 67.1613 78.0998 67.1602C77.3613 67.1592 76.6383 67.3719 76.018 67.7727C75.2368 68.2837 74.3233 68.5553 73.3898 68.5539C72.4563 68.5524 71.5435 68.2781 70.764 67.7647C70.2471 67.4136 69.636 67.2273 69.0112 67.2305C68.3863 67.2337 67.7772 67.4263 67.264 67.7827C66.4979 68.2897 65.5996 68.56 64.681 68.56C63.7623 68.56 62.864 68.2897 62.098 67.7827C61.5711 67.4158 60.944 67.2204 60.3021 67.2231C59.6602 67.2258 59.0347 67.4264 58.511 67.7976C57.9805 68.1592 57.3765 68.3986 56.7424 68.4985C56.1083 68.5985 55.4599 68.5565 54.844 68.3756C54.203 68.1826 53.9319 68.4186 53.6769 68.9576C53.4357 69.4477 53.3278 69.9926 53.3642 70.5376C53.4005 71.0826 53.5797 71.6083 53.8839 72.062C54.188 72.5157 54.6063 72.8812 55.0966 73.1218C55.587 73.3624 56.132 73.4697 56.6769 73.4327C61.6939 73.4567 66.711 73.4397 71.728 73.4407C73.773 73.4407 75.818 73.4346 77.863 73.4516C78.587 73.4576 79.155 73.7657 79.114 74.5747C79.075 75.3217 78.525 75.5747 77.833 75.5587C77.577 75.5537 77.321 75.5587 77.066 75.5587C69.94 75.5587 62.8139 75.5587 55.6879 75.5587C53.7079 75.5587 53.102 76.2776 53.416 78.2286C53.6816 80.1807 54.6594 81.9657 56.1614 83.2405C57.6635 84.5153 59.5837 85.1899 61.553 85.1347C67.049 85.1393 72.546 85.1393 78.044 85.1347V85.1326ZM78.144 57.6227H67.414C63.326 57.6227 59.238 57.6227 55.15 57.6227C54.9269 57.5974 54.701 57.619 54.4868 57.6863C54.2726 57.7535 54.0749 57.8649 53.9063 58.0131C53.7377 58.1614 53.602 58.3433 53.5079 58.5471C53.4138 58.7509 53.3634 58.9722 53.36 59.1967C53.3597 59.421 53.4053 59.643 53.4941 59.8491C53.5828 60.0552 53.7127 60.2409 53.8759 60.3949C54.0391 60.5489 54.232 60.6678 54.4428 60.7445C54.6537 60.8211 54.878 60.8539 55.102 60.8406C55.293 60.8496 55.4849 60.8406 55.6769 60.8406H100.514C100.833 60.8623 101.153 60.8513 101.469 60.8077C101.822 60.7603 102.149 60.5939 102.395 60.3359C102.641 60.0779 102.791 59.7438 102.822 59.3886C102.876 59.0529 102.811 58.7087 102.637 58.4162C102.464 58.1237 102.193 57.9015 101.872 57.7886C101.512 57.6673 101.133 57.6131 100.754 57.6286C93.214 57.622 85.6753 57.6206 78.138 57.6246L78.144 57.6227ZM102.612 62.8727H53.577C53.3846 63.3932 53.3557 63.96 53.4942 64.4974C53.6327 65.0347 53.932 65.517 54.352 65.8796C54.7932 66.2322 55.3372 66.4314 55.9017 66.4473C56.4663 66.4632 57.0206 66.2948 57.4809 65.9677C58.305 65.4046 59.2787 65.1011 60.2767 65.0961C61.2747 65.0911 62.2513 65.3849 63.081 65.9396C63.5619 66.2625 64.1292 66.4322 64.7084 66.4265C65.2876 66.4208 65.8515 66.2399 66.3259 65.9077C67.1123 65.3734 68.0396 65.0846 68.9903 65.078C69.941 65.0714 70.8723 65.3473 71.666 65.8706C72.1702 66.213 72.7647 66.3979 73.3741 66.4018C73.9835 66.4057 74.5804 66.2285 75.0889 65.8926C75.9881 65.3291 77.0278 65.0302 78.0889 65.0302C79.1501 65.0302 80.1898 65.3291 81.0889 65.8926C81.5802 66.2264 82.1594 66.4068 82.7533 66.4111C83.3472 66.4154 83.929 66.2433 84.4249 65.9167C85.2413 65.3702 86.2031 65.0817 87.1855 65.0886C88.1678 65.0956 89.1254 65.3977 89.934 65.9557C90.4028 66.2679 90.9538 66.4339 91.5172 66.4325C92.0805 66.431 92.6307 66.2623 93.098 65.9476C93.5333 65.6817 93.9981 65.4673 94.483 65.3087C95.2064 65.1011 95.967 65.0569 96.7096 65.1793C97.4523 65.3018 98.1584 65.5878 98.777 66.0166C99.2322 66.3236 99.7742 66.4757 100.323 66.4505C100.871 66.4253 101.397 66.2241 101.822 65.8767C102.244 65.5163 102.545 65.0354 102.685 64.4987C102.825 63.962 102.798 63.3952 102.606 62.8746L102.612 62.8727Z" fill="#FCFAF2"/>
<path d="M67.681 40.6216C67.624 39.9566 67.821 39.3467 68.681 39.2487C69.364 39.1707 69.7809 39.7756 69.7809 40.7316C69.7809 41.4616 69.627 42.1036 68.756 42.1906C68.05 42.2616 67.682 41.7236 67.681 40.6216Z" fill="#FCFAF2"/>
<path d="M78.8919 40.6936C78.8979 41.7066 78.5369 42.2556 77.8389 42.1936C76.9809 42.1156 76.7899 41.4937 76.7889 40.7527C76.7889 39.7977 77.1889 39.2266 77.8759 39.2386C78.5439 39.2496 78.8869 39.7416 78.8919 40.6936Z" fill="#FCFAF2"/>
<path d="M74.234 48.5036C74.241 49.4966 73.866 50.0386 73.155 49.9906C72.27 49.9316 72.109 49.3206 72.121 48.5706C72.138 47.5486 72.471 47.0256 73.185 47.0706C74.066 47.1356 74.225 47.7776 74.234 48.5036Z" fill="#FCFAF2"/>
<path d="M88.719 40.5306C88.719 41.2556 88.583 41.9007 87.678 41.9367C86.959 41.9657 86.615 41.4517 86.626 40.4367C86.634 39.7107 86.786 39.0717 87.674 39.0227C88.373 38.9867 88.73 39.5286 88.719 40.5306Z" fill="#FCFAF2"/>
<path d="M65.065 48.4986C65.072 49.5076 64.722 50.0306 64.009 49.9936C63.116 49.9466 62.967 49.3036 62.96 48.5756C62.952 47.5826 63.322 47.0596 64.03 47.0686C64.718 47.0766 65.059 47.5476 65.065 48.4986Z" fill="#FCFAF2"/>
<path d="M83.3439 48.5096C83.3519 49.5266 83.0049 50.0316 82.2819 49.9906C81.3819 49.9406 81.2579 49.2846 81.2509 48.5666C81.2409 47.5756 81.6109 47.0606 82.3209 47.0726C82.9979 47.0806 83.3439 47.5616 83.3439 48.5096Z" fill="#FCFAF2"/>
<path d="M93.223 48.8096C93.2419 48.9555 93.2297 49.1037 93.1874 49.2445C93.145 49.3853 93.0734 49.5155 92.9772 49.6268C92.881 49.738 92.7624 49.8276 92.6291 49.8898C92.4959 49.952 92.351 49.9853 92.204 49.9876C91.486 50.0426 91.129 49.5206 91.114 48.5236C91.103 47.7856 91.242 47.1546 92.123 47.0726C92.837 47.0096 93.224 47.5556 93.223 48.8096Z" fill="#FCFAF2"/>
<path d="M82.9309 73.3477C83.1879 73.7477 83.6029 74.1167 83.6649 74.5417C83.7569 75.1617 83.2949 75.5356 82.6559 75.5226C82.0169 75.5096 81.5749 75.1086 81.6869 74.4996C81.7649 74.0786 82.2009 73.7236 82.4769 73.3396L82.9309 73.3477Z" fill="#FCFAF2"/>
</svg>
