<svg width="14" height="16" viewBox="0 0 14 16" fill="none" xmlns="http://www.w3.org/2000/svg">
<path d="M6.4772 10.5005H8.04019C8.43889 11.4765 8.69387 12.5052 8.79718 13.5545C8.80376 13.7596 8.76926 13.964 8.69567 14.1556C8.62209 14.3472 8.51092 14.5221 8.36871 14.6701C8.2265 14.8181 8.0561 14.9362 7.86758 15.0173C7.67906 15.0985 7.47623 15.1412 7.27099 15.1428C7.06575 15.1444 6.86224 15.1049 6.67248 15.0267C6.48272 14.9485 6.31054 14.8331 6.16604 14.6873C6.02154 14.5416 5.90765 14.3684 5.83108 14.1779C5.75451 13.9875 5.7168 13.7837 5.72018 13.5785C5.81712 12.5204 6.07231 11.4828 6.4772 10.5005V10.5005Z" stroke="#FF8500" stroke-width="0.75" stroke-miterlimit="10"/>
<path d="M6.48227 5.63947C6.08445 4.67431 5.82778 3.65683 5.72025 2.61845C5.71107 2.4107 5.74409 2.20325 5.81726 2.00859C5.89044 1.81393 6.00229 1.63611 6.14606 1.48586C6.28983 1.3356 6.46251 1.21602 6.65375 1.13432C6.84499 1.05263 7.05081 1.0105 7.25876 1.0105C7.46672 1.0105 7.67251 1.05263 7.86374 1.13432C8.05498 1.21602 8.2277 1.3356 8.37146 1.48586C8.51523 1.63611 8.62708 1.81393 8.70026 2.00859C8.77344 2.20325 8.80642 2.4107 8.79725 2.61845C8.6896 3.65778 8.43297 4.67622 8.03525 5.64246L6.48227 5.63947Z" stroke="#FF8500" stroke-width="0.75" stroke-miterlimit="10"/>
<path d="M4.75516 8.61847L5.53318 9.98047C5.15818 10.3885 4.74317 10.8705 4.29517 11.3175C4.0048 11.5925 3.69462 11.8458 3.36716 12.0755C3.13772 12.243 2.8663 12.3435 2.58311 12.3659C2.29992 12.3883 2.01607 12.3316 1.76316 12.2023C1.51025 12.0729 1.29821 11.8759 1.15061 11.6332C1.00302 11.3905 0.925648 11.1115 0.927162 10.8275C0.920158 10.5292 1.00442 10.2359 1.16865 9.98674C1.33288 9.73763 1.56925 9.54459 1.84617 9.43347C2.7732 9.02781 3.75231 8.7535 4.75516 8.61847V8.61847Z" stroke="#FF8500" stroke-width="0.75" stroke-miterlimit="10"/>
<path d="M8.99316 9.96245L9.75818 8.61945C10.7577 8.75266 11.7338 9.02461 12.6582 9.42744C12.9352 9.53804 13.172 9.73017 13.3374 9.97839C13.5028 10.2266 13.5888 10.5192 13.5842 10.8174C13.5987 11.1011 13.529 11.3828 13.384 11.627C13.239 11.8713 13.0251 12.0673 12.7692 12.1904C12.5138 12.3342 12.2217 12.3994 11.9294 12.3779C11.6371 12.3563 11.3577 12.2491 11.1262 12.0694C10.3195 11.471 9.60142 10.7617 8.99316 9.96245V9.96245Z" stroke="#FF8500" stroke-width="0.75" stroke-miterlimit="10"/>
<path d="M5.52822 6.17646L4.75722 7.51746C3.70496 7.38836 2.67985 7.09301 1.72021 6.64246C1.53724 6.54369 1.37647 6.40846 1.24782 6.24511C1.11918 6.08175 1.02539 5.89376 0.972251 5.69274C0.919113 5.49171 0.90777 5.28193 0.938895 5.07634C0.97002 4.87076 1.04296 4.67374 1.15322 4.49745C1.26312 4.31783 1.40873 4.16269 1.58105 4.04164C1.75336 3.9206 1.94871 3.83622 2.15496 3.79375C2.36121 3.75128 2.57399 3.75162 2.78011 3.79474C2.98623 3.83787 3.18127 3.92287 3.3532 4.04447C4.17615 4.64779 4.90859 5.36571 5.52822 6.17646V6.17646Z" stroke="#FF8500" stroke-width="0.75" stroke-miterlimit="10"/>
<path d="M9.72119 7.54846C9.62525 7.30045 9.51677 7.05747 9.39618 6.82046C9.25552 6.60351 9.10299 6.39452 8.93921 6.19445C9.35621 5.74545 9.77321 5.26645 10.2232 4.82145C10.5134 4.54603 10.8232 4.29203 11.1502 4.06146C11.3242 3.93454 11.5231 3.84575 11.7337 3.80088C11.9444 3.75602 12.1622 3.75607 12.3728 3.80105C12.5835 3.84604 12.7823 3.93494 12.9562 4.06195C13.1302 4.18896 13.2754 4.35123 13.3824 4.53816C13.4894 4.72509 13.5558 4.93249 13.5773 5.14682C13.5987 5.36114 13.5747 5.57759 13.5068 5.78201C13.439 5.98643 13.3287 6.17424 13.1834 6.33319C13.038 6.49213 12.8608 6.61864 12.6632 6.70445C12.2748 6.88224 11.8736 7.03099 11.4632 7.14946C10.8842 7.30846 10.2942 7.41946 9.72119 7.54846Z" stroke="#FF8500" stroke-width="0.75" stroke-miterlimit="10"/>
<path d="M8.80321 8.06643C8.8038 8.3724 8.71348 8.67165 8.54369 8.92619C8.37391 9.18072 8.13232 9.37908 7.8496 9.49607C7.56688 9.61306 7.25577 9.64342 6.95577 9.58329C6.65577 9.52316 6.38039 9.37523 6.1646 9.15832C5.94882 8.9414 5.80234 8.66528 5.74377 8.36497C5.6852 8.06466 5.71716 7.7537 5.83562 7.4716C5.95409 7.18949 6.15372 6.94896 6.40914 6.7805C6.66456 6.61204 6.96426 6.52325 7.27023 6.52543C7.67441 6.53734 8.05862 6.70376 8.3438 6.99043C8.62898 7.27709 8.79341 7.66219 8.80321 8.06643Z" stroke="#FF8500" stroke-width="0.75" stroke-miterlimit="10"/>
</svg>
