<svg width="13" height="15" viewBox="0 0 13 15" fill="none" xmlns="http://www.w3.org/2000/svg">
<path d="M5.55527 9.50046H7.11826C7.51649 10.4766 7.77146 11.5053 7.87524 12.5545C7.87682 12.7566 7.83858 12.957 7.7627 13.1443C7.68681 13.3316 7.57478 13.5022 7.43298 13.6462C7.29119 13.7902 7.1224 13.9049 6.93628 13.9837C6.75016 14.0625 6.55037 14.1039 6.34827 14.1055C6.14616 14.107 5.94572 14.0688 5.75839 13.9929C5.57107 13.917 5.40052 13.805 5.2565 13.6632C5.11248 13.5214 4.9978 13.3526 4.91901 13.1665C4.84021 12.9804 4.79882 12.7806 4.79724 12.5785C4.895 11.5204 5.15052 10.4829 5.55527 9.50046Z" fill="#FF8500"/>
<path d="M5.55525 4.63947C5.15824 3.6741 4.90194 2.6567 4.79424 1.61845C4.7836 1.40988 4.8155 1.20134 4.88799 1.00548C4.96047 0.809619 5.07203 0.630545 5.2159 0.479156C5.35976 0.327767 5.53293 0.20722 5.72484 0.124847C5.91675 0.0424748 6.12339 0 6.33223 0C6.54107 0 6.74774 0.0424748 6.93965 0.124847C7.13156 0.20722 7.30473 0.327767 7.44859 0.479156C7.59246 0.630545 7.70402 0.809619 7.77651 1.00548C7.84899 1.20134 7.8809 1.40988 7.87026 1.61845C7.76342 2.65782 7.50709 3.67633 7.10924 4.64246L5.55525 4.63947Z" fill="#FF8500"/>
<path d="M3.83722 7.61847L4.61524 8.98047C4.23924 9.38847 3.82522 9.87047 3.37622 10.3175C3.08619 10.5925 2.77636 10.8458 2.44922 11.0755C2.21977 11.243 1.94835 11.3435 1.66516 11.3659C1.38197 11.3883 1.09813 11.3316 0.845217 11.2023C0.592305 11.0729 0.380263 10.8759 0.232668 10.6332C0.0850734 10.3905 0.0077053 10.1115 0.00921861 9.82747C0.00199479 9.52926 0.0860332 9.23596 0.250094 8.98683C0.414155 8.7377 0.650407 8.54463 0.927218 8.43347C1.85464 8.02793 2.83407 7.75363 3.83722 7.61847Z" fill="#FF8500"/>
<path d="M8.07227 8.96245L8.83725 7.61945C9.83675 7.75279 10.8128 8.02474 11.7372 8.42744C12.0142 8.53804 12.2511 8.73017 12.4165 8.97839C12.5818 9.22662 12.6679 9.51922 12.6633 9.81744C12.6778 10.1011 12.6081 10.3828 12.4631 10.627C12.3181 10.8713 12.1042 11.0673 11.8483 11.1904C11.5929 11.3342 11.3007 11.3994 11.0085 11.3779C10.7162 11.3563 10.4368 11.2491 10.2053 11.0694C9.3986 10.471 8.68051 9.76171 8.07227 8.96245Z" fill="#FF8500"/>
<path d="M4.60622 5.17646L3.8362 6.51746C2.78394 6.38836 1.75886 6.09301 0.799216 5.64246C0.616165 5.54377 0.455308 5.4086 0.32656 5.24529C0.197812 5.08198 0.103914 4.894 0.0506812 4.69297C-0.00255174 4.49194 -0.0140023 4.28214 0.0170508 4.07651C0.0481039 3.87088 0.121 3.6738 0.231223 3.49745C0.341126 3.31783 0.486736 3.16269 0.659049 3.04164C0.831362 2.9206 1.02671 2.83622 1.23296 2.79375C1.43922 2.75128 1.652 2.75162 1.85812 2.79474C2.06423 2.83787 2.25928 2.92287 2.4312 3.04447C3.2546 3.64726 3.98711 4.36526 4.60622 5.17646Z" fill="#FF8500"/>
<path d="M8.8002 6.54846C8.70426 6.30045 8.59578 6.05747 8.47519 5.82046C8.33419 5.60375 8.18164 5.39477 8.01819 5.19445C8.43419 4.74545 8.85219 4.26645 9.30219 3.82145C9.59241 3.54604 9.90222 3.29205 10.2292 3.06146C10.4032 2.93454 10.6021 2.84575 10.8127 2.80088C11.0234 2.75602 11.2412 2.75607 11.4518 2.80105C11.6625 2.84604 11.8613 2.93494 12.0352 3.06195C12.2092 3.18896 12.3544 3.35123 12.4614 3.53816C12.5684 3.72509 12.6348 3.93249 12.6562 4.14682C12.6777 4.36114 12.6537 4.57759 12.5858 4.78201C12.5179 4.98643 12.4078 5.17424 12.2624 5.33319C12.117 5.49213 11.9398 5.61864 11.7422 5.70445C11.3537 5.8822 10.9526 6.03095 10.5422 6.14946C9.96221 6.30846 9.3732 6.41946 8.8002 6.54846Z" fill="#FF8500"/>
<path d="M7.88225 7.06643C7.88303 7.37264 7.79281 7.67218 7.62303 7.92701C7.45326 8.18184 7.21158 8.38048 6.9287 8.4977C6.64581 8.61493 6.33449 8.64544 6.03423 8.58538C5.73397 8.52532 5.45833 8.37741 5.2423 8.16039C5.02627 7.94338 4.87957 7.66706 4.82088 7.36652C4.76219 7.06599 4.79414 6.7548 4.91265 6.47245C5.03115 6.1901 5.23089 5.94934 5.4865 5.78072C5.7421 5.61211 6.04205 5.52325 6.34825 5.52543C6.75253 5.53733 7.13686 5.70372 7.4222 5.99037C7.70754 6.27701 7.87219 6.6621 7.88225 7.06643Z" fill="#FF8500"/>
</svg>
