<svg width="46" height="46" viewBox="0 0 46 46" fill="none" xmlns="http://www.w3.org/2000/svg">
<path d="M14.9925 21.8603C11.8271 21.8379 8.75755 20.7715 6.26003 18.8266C3.76252 16.8816 1.97667 14.1668 1.17954 11.1033C0.819929 9.69565 0.828502 8.21914 1.20443 6.81575C1.58036 5.41236 2.31099 4.12928 3.3261 3.08986C4.34121 2.05044 5.60666 1.28965 7.00077 0.88063C8.39488 0.471608 9.87076 0.428108 11.2865 0.754318C13.8923 1.39096 16.2626 2.75718 18.1196 4.69284C19.9767 6.6285 21.2435 9.0534 21.7715 11.6833C22.1527 13.2323 22.25 14.8376 22.0585 16.4213C21.4205 20.1023 19.8875 21.5843 16.1585 21.8563C15.7695 21.8843 15.3795 21.8603 14.9925 21.8603Z" fill="#FCFAF2"/>
<path d="M15.52 23.7129C17.52 23.7939 19.888 23.9429 21.22 26.3379C22.0512 27.9151 22.3855 29.707 22.179 31.4779C21.9294 35.214 20.3041 38.7251 17.617 41.3329C14.549 44.2879 10.884 45.9489 6.568 44.4949C1.802 42.8949 -0.23199 37.8659 1.60601 32.8149C3.54001 27.5229 9.18901 23.7249 15.52 23.7129Z" fill="#FCFAF2"/>
<path d="M30.9769 21.9347C29.6858 21.9406 28.4036 21.7196 27.1889 21.2817C24.6889 20.2357 24.089 17.9997 23.989 15.6697C23.714 9.76068 27.4099 2.99668 33.7029 1.14468C37.2779 0.0916841 40.6449 0.575678 43.1499 3.54468C45.7249 6.59068 45.7779 10.1137 44.1649 13.6217C42.9589 16.098 41.0853 18.1882 38.7552 19.657C36.4252 21.1257 33.7312 21.9146 30.9769 21.9347Z" fill="#FCFAF2"/>
<path d="M31.1022 23.8371C37.1562 23.8851 43.1022 28.1641 44.6692 33.6021C46.2632 39.1291 43.4162 43.9531 37.7932 44.8521C34.3302 45.4071 31.3562 43.9281 28.8622 41.6211C27.4027 40.2678 26.2265 38.6382 25.4017 36.8269C24.5769 35.0155 24.1199 33.0584 24.0572 31.0691C23.9618 29.47 24.2898 27.8739 25.0082 26.4421C25.8952 24.6591 28.2042 23.8231 31.1022 23.8371Z" fill="#FCFAF2"/>
</svg>
