<svg  viewBox="0 0 51 45" fill="none" xmlns="http://www.w3.org/2000/svg">
  <path d="M25.403 15.8032C25.44 15.6912 25.483 15.5802 25.515 15.4662C26.2297 12.8786 27.1755 10.3605 28.341 7.94221C29.1473 6.22484 30.1908 4.62926 31.441 3.20222C32.1783 2.35289 33.0701 1.65114 34.069 1.13421C34.9396 0.672075 35.9254 0.471771 36.9074 0.557476C37.8894 0.643181 38.8255 1.01123 39.603 1.61721C40.8697 2.55783 41.9416 3.73567 42.759 5.08522C44.1741 7.34871 45.3087 9.77585 46.138 12.3132C47.4609 16.1755 48.4394 20.1474 49.062 24.1822C49.4506 26.6322 49.7803 29.0919 50.051 31.5612C50.277 33.6132 50.421 35.6792 50.523 37.7412C50.637 40.0322 50.66 42.3262 50.731 44.6202C50.739 44.8602 50.67 44.9272 50.431 44.9262C48.5363 44.9169 46.641 44.9169 44.745 44.9262C44.492 44.9262 44.445 44.8412 44.445 44.6142C44.415 42.3192 44.411 40.0242 44.326 37.7322C44.226 35.1452 44.095 32.5592 43.907 29.9772C43.737 27.6652 43.507 25.3572 43.237 23.0562C42.851 19.5171 42.2458 16.0054 41.425 12.5412C40.9755 10.4872 40.3049 8.48786 39.425 6.57821C39.1262 5.97059 38.7731 5.39122 38.37 4.84721C38.0942 4.49045 37.7614 4.18165 37.385 3.93322C37.1287 3.756 36.8271 3.65588 36.5157 3.64471C36.2043 3.63355 35.8963 3.7118 35.628 3.87022C35.1376 4.13753 34.715 4.51386 34.393 4.97021C33.5639 6.13063 32.9196 7.4125 32.483 8.77021C31.597 11.3131 30.9342 13.9283 30.502 16.5862C30.151 18.6312 29.85 20.6862 29.577 22.7392C29.386 24.1672 29.244 25.6032 29.139 27.0392C28.956 29.5862 28.783 32.1342 28.668 34.6842C28.568 36.8982 28.56 39.1142 28.512 41.3292C28.512 41.4502 28.512 41.5722 28.512 41.7162H22.25C22.245 41.6322 22.236 41.5412 22.233 41.4492C22.196 39.3552 22.189 37.2602 22.112 35.1672C22.037 33.1192 21.912 31.0672 21.766 29.0272C21.638 27.2432 21.483 25.4612 21.282 23.6832C20.864 19.4925 20.1174 15.341 19.049 11.2672C18.6277 9.57189 18.014 7.93023 17.22 6.37422C16.8671 5.76694 16.4774 5.18184 16.053 4.62222C15.907 4.43823 15.7352 4.27623 15.543 4.14122C15.1846 3.81373 14.7129 3.63854 14.2276 3.65272C13.7423 3.66691 13.2816 3.86936 12.943 4.21722C12.2965 4.82777 11.7766 5.5597 11.413 6.37121C10.5494 8.20216 9.88594 10.1209 9.43399 12.0942C8.77145 14.7291 8.26293 17.4002 7.91099 20.0942C7.62199 22.2942 7.34298 24.4862 7.13398 26.6892C6.91198 29.0412 6.75699 31.3992 6.60899 33.7562C6.38099 37.3652 6.29799 40.9792 6.30899 44.5952C6.30899 44.8662 6.23198 44.9252 5.97198 44.9242C4.08598 44.9129 2.19965 44.9129 0.312984 44.9242C0.0859839 44.9242 0.0129846 44.8672 0.0199846 44.6342C0.0629846 42.8442 0.0549819 41.0522 0.135982 39.2642C0.235982 37.1302 0.363989 34.9952 0.552989 32.8642C0.914353 28.6244 1.53956 24.4112 2.42498 20.2492C3.17493 16.5637 4.27147 12.9574 5.69998 9.47822C6.5103 7.42165 7.60933 5.49093 8.96398 3.74421C9.50805 3.0673 10.1195 2.44745 10.789 1.89422C11.7326 1.03999 12.953 0.555323 14.2256 0.529415C15.4982 0.503508 16.7374 0.938101 17.715 1.75322C18.9344 2.68473 19.9772 3.8271 20.794 5.12622C22.2419 7.37985 23.3984 9.80785 24.236 12.3522C24.596 13.3852 24.902 14.4342 25.236 15.4772C25.271 15.5872 25.312 15.6962 25.351 15.8062L25.403 15.8032Z" fill="#FCFAF2"/>
</svg>
